<?xml version="1.0" standalone="no"?>
<!DOCTYPE svg PUBLIC "-//W3C//DTD SVG 1.1//EN" "http://www.w3.org/Graphics/SVG/1.1/DTD/svg11.dtd" >
<svg xmlns="http://www.w3.org/2000/svg">
<metadata></metadata>
<defs>
<font id="molleregular" horiz-adv-x="0" >
<font-face units-per-em="2048" ascent="1638" descent="-410" />
<missing-glyph horiz-adv-x="736" />
<glyph horiz-adv-x="1024" />
<glyph horiz-adv-x="1024" />
<glyph unicode="&#xd;" horiz-adv-x="1024" />
<glyph />
<glyph />
<glyph />
<glyph />
<glyph />
<glyph />
<glyph />
<glyph />
<glyph unicode="&#x9;" />
<glyph unicode="&#xa;" />
<glyph />
<glyph />
<glyph />
<glyph />
<glyph />
<glyph />
<glyph />
<glyph />
<glyph />
<glyph />
<glyph />
<glyph />
<glyph unicode=" "  horiz-adv-x="736" />
<glyph unicode="&#x09;" horiz-adv-x="736" />
<glyph unicode="&#xa0;" horiz-adv-x="736" />
<glyph unicode="!" horiz-adv-x="1014" d="M180 44q0 35 24 74t64 70q91 69 190 69t144.5 -41t45.5 -107q0 -75 -116 -138q-106 -58 -196 -58q-63 0 -96.5 24.5t-46.5 48t-13 58.5zM333 408q53 343 197 608q49 91 98 149.5t97 108t103 90.5q129 96 234 96q53 0 100 -58q53 -65 53 -145q0 -67 -101 -133 q-46 -30 -106 -62t-124.5 -72t-129.5 -91.5t-120 -120.5q-126 -156 -160 -367q-10 0 -33 -3.5t-47 -5.5q-61 -7 -61 6z" />
<glyph unicode="&#x22;" horiz-adv-x="1063" d="M400 1014q14 36 32.5 131.5t32 146t35.5 90.5q48 90 127 90q50 0 79.5 -33t29.5 -76.5t-16.5 -84.5t-42.5 -82.5t-57.5 -80t-62 -68t-56 -47.5t-34.5 -18t-17.5 3t-17.5 8q-23 12 -32 21zM800 1014q14 36 32.5 131.5t32 146t35.5 90.5q48 90 127 90q50 0 79.5 -33 t29.5 -76.5t-16.5 -84.5t-42.5 -82.5t-57.5 -80t-61.5 -67.5q-68 -66 -95 -66q-16 0 -37 13.5t-26 18.5z" />
<glyph unicode="#" horiz-adv-x="1707" d="M230 34q50 75 186 347q-133 11 -143 39q-19 53 3 155q62 -11 225 -20q62 129 122 259q-190 11 -202 44q-17 47 3 139q62 -13 272 -22q155 353 175 442l24 -8q66 -22 66 -38q0 -83 -109 -401q168 -4 342 -4q141 358 162 451l24 -8q66 -22 66 -38q0 -89 -94 -402 q193 4 267 15v-26q0 -77 -16 -82q-63 -25 -294 -45q-44 -142 -94 -285q207 4 291 16v-29q0 -90 -17.5 -96t-50 -13t-75.5 -13q-96 -13 -204 -21q-145 -394 -194 -394q-94 0 -185 38q34 53 164 343q-133 -6 -212.5 -6h-109.5q-159 -375 -207 -375q-84 0 -185 38zM695 548 q156 -4 323 -4l116 274q-155 -9 -339 -9q-53 -143 -100 -261z" />
<glyph unicode="$" horiz-adv-x="1368" d="M95 507q0 20 45 39q11 5 20 7q35 -90 131 -156q90 -61 203 -80q111 212 231 467q-73 68 -98 105q-51 73 -51 143.5t34.5 127t91.5 99.5q118 88 287 111q76 185 90 243q82 -27 82 -45q0 -43 -51 -192q105 -4 164 -32.5t82.5 -54t23.5 -49.5t-11.5 -40.5t-28.5 -30.5 q-32 -26 -70 -39q-37 68 -138 107q-32 12 -65 18q-61 -162 -149 -374q129 -93 176 -149q98 -113 98 -230q0 -141 -92 -261q-84 -110 -230 -177q-140 -64 -298 -64q-33 0 -63 3q-140 -258 -185 -258q-59 0 -124 87q42 37 148 216q-118 58 -185.5 176t-67.5 283zM666 317 q157 29 204 145q17 41 17 84q0 70 -56 135q-100 -230 -165 -364zM739 1076q0 -54 70 -113q87 191 129 287q-135 -30 -182 -110q-17 -30 -17 -64z" />
<glyph unicode="%" horiz-adv-x="1733" d="M105 49q113 80 415 379q446 440 727 792q74 92 126 168q27 -9 51.5 -36t24.5 -32q0 -62 -234 -364q-208 -270 -490 -578q-281 -307 -425 -411q-48 -35 -65 -35t-36.5 14t-38.5 32q-46 44 -55 71zM284 967q0 72 23.5 128t62.5 103q85 99 206 127q10 20 29 23.5t44 3.5 t62 -11t72 -41q76 -64 76 -151t-30.5 -153.5t-82 -114t-118.5 -73.5t-127 -26t-97.5 15.5t-63.5 42.5q-56 55 -56 127zM476 1044q0 -72 63 -72q53 0 105 58q50 58 56 106q9 86 -50 116q-81 -25 -127.5 -80.5t-46.5 -127.5zM905 183q0 115 97 235.5t236 160.5q11 34 32 38 q26 3 58.5 3t78.5 -12.5t86 -48.5q83 -75 83 -214q0 -162 -122 -279q-124 -118 -300 -118q-118 0 -183.5 60t-65.5 175zM1138 267q0 -82 69 -82q54 0 105 56q62 69 62 145q0 54 -37 86q-131 -18 -182 -126q-17 -36 -17 -79z" />
<glyph unicode="&#x26;" horiz-adv-x="1717" d="M98 384q0 184 250 324q138 77 283.5 128t234.5 81q117 320 307 423q68 37 129 37t95.5 -12t58.5 -33q51 -43 51 -106.5t-32.5 -112.5t-88.5 -90q-92 -68 -282 -141q-1 -23 -1 -68q0 -144 48 -277q190 130 243 270q10 -2 21 -4t20 -7q20 -10 20 -38t-15.5 -71t-43.5 -91 q-62 -105 -157 -206q50 -47 98.5 -47t86.5 8t74 21q81 27 117 61q37 -15 37 -49q0 -22 -30.5 -77t-61.5 -95t-71.5 -78.5t-92.5 -68.5q-114 -66 -263 -66t-250 105q-190 -105 -348 -105q-190 0 -310 100q-127 105 -127 285zM483 490.5q0 -57.5 43.5 -95.5t110.5 -38t137 14 q-1 8 -1 17v17q0 176 50 372q-160 -62 -223 -107t-90 -83.5t-27 -96zM1116 1004q266 101 266 198q0 56 -51 71q-14 4 -39.5 4t-56 -21t-53.5 -58q-47 -74 -66 -194z" />
<glyph unicode="'" horiz-adv-x="663" d="M400 1014q14 36 32.5 131.5t32 146t35.5 90.5q48 90 127 90q50 0 79.5 -33t29.5 -76.5t-16.5 -84.5t-42.5 -82.5t-57.5 -80t-62 -68t-56 -47.5t-34.5 -18t-17.5 3t-17.5 8q-23 12 -32 21z" />
<glyph unicode="(" horiz-adv-x="1052" d="M200 15.5q0 85.5 35 217t95.5 266t143.5 267.5t179 253.5t201 223.5t210 179q226 161 397 161q48 0 65 -67q5 -18 6 -34q-187 0 -400 -181q-196 -167 -362 -439q-164 -267 -237 -540q-45 -168 -45 -286.5t23 -198.5q-50 -43 -136 -63q-27 -7 -49.5 -7t-44.5 14t-40 41 t-29.5 67.5t-11.5 126z" />
<glyph unicode=")" horiz-adv-x="1167" d="M15 -116q192 42 386 244q177 184 311 458q193 393 193 729q0 143 -41 246q35 18 60 18q45 0 56 -24q45 -99 53 -192t8 -162.5t-12.5 -187t-53.5 -274.5t-102 -305.5t-138.5 -280.5t-166.5 -231q-195 -215 -387 -215q-61 0 -117 73q-46 61 -49 104z" />
<glyph unicode="*" horiz-adv-x="1003" d="M317 1067q122 61 272 144q-149 125 -149 194q0 40 56 85q16 13 33 22q17 -38 159 -171q45 187 45 242h26t41 -3.5t38 -15.5q28 -21 28 -59q0 -54 -25 -154q196 112 254 161q52 -50 52 -83q0 -66 -142 -155q-68 -42 -152 -86q97 -87 158 -137q-15 -29 -41 -43 q-47 -25 -69 -13q-58 32 -147 91q-71 -180 -107 -223q-25 -29 -68 -29q-24 0 -39 11q35 88 76 228q-200 -89 -226 -89t-38.5 9.5t-19.5 22.5q-15 27 -15 51z" />
<glyph unicode="+" horiz-adv-x="1436" d="M291 579q0 35 13 80q92 -28 371 -28q88 307 81 383h28t49 -3.5t51 -15.5q46 -24 46 -94t-69 -268q201 6 316 24q4 -17 4 -37q0 -67 -50 -87q-91 -34 -328 -55q-101 -255 -151 -338q-24 -39 -99 -39q-29 0 -39 7q9 31 22 71.5t27.5 86.5t30.5 96.5t32 103.5 q-80 -3 -152 -3q-183 0 -183 116z" />
<glyph unicode="," horiz-adv-x="828" d="M-24 -256q150 90 246 183q34 33 46 58q-28 31 -28 77t19 80.5t51 59.5q70 55 158.5 55t134 -41t45.5 -101t-28.5 -115.5t-76 -108t-108 -98.5t-125.5 -80q-140 -74 -242 -74q-37 0 -78 73q-10 18 -14 32z" />
<glyph unicode="-" horiz-adv-x="1093" d="M373 553q0 59 27 105q159 -27 287 -27q222 0 291.5 11t77 4t7.5 -28t-25.5 -47.5t-68 -49.5t-97 -41.5t-112.5 -31.5q-120 -27 -205 -27q-142 0 -174 89q-8 23 -8 43z" />
<glyph unicode="." horiz-adv-x="828" d="M180 44q0 35 24 74t64 70q91 69 190 69t144.5 -41t45.5 -107q0 -75 -114 -138q-105 -58 -198 -58q-63 0 -96.5 24.5t-46.5 48t-13 58.5z" />
<glyph unicode="/" horiz-adv-x="1151" d="M14 -121q159 141 679 877q317 448 437.5 638.5t135.5 218.5q77 -26 77 -43.5t-29 -78t-80 -151.5t-119 -205.5t-145.5 -240.5t-161 -256.5t-165 -253t-156.5 -230.5t-137 -188q-132 -174 -167 -174q-54 0 -138 60q-22 15 -31 27z" />
<glyph unicode="0" horiz-adv-x="1353" d="M78 387q0 224 181 489q113 166 270 294q256 208 507 208q161 0 251 -105.5t90 -294.5q0 -221 -115 -445q-121 -235 -315 -379q-216 -160 -469 -160q-201 0 -300.5 103.5t-99.5 289.5zM406 516q0 -93 54.5 -146t140.5 -53t157.5 29.5t138.5 80t125.5 118.5t102.5 145 q94 163 94 318q0 182 -116 240q-38 19 -101.5 19t-138.5 -31t-142.5 -85t-125 -126.5t-99.5 -155t-66 -171.5t-24 -182z" />
<glyph unicode="1" horiz-adv-x="914" d="M110 191.5q0 63.5 27.5 123t74 124.5t107.5 135t129 141t137.5 142t132.5 139q145 154 204 250q-196 -138 -461 -246q-121 -50 -150.5 -50t-45 11.5t-27.5 28.5q-21 30 -32 70q273 87 613 255q71 35 131 69q57 -11 94 -71q11 -17 11 -46.5t-39.5 -101t-99.5 -166.5 t-129.5 -210.5t-130.5 -246.5q-142 -304 -147 -571q-39 -3 -77 -3t-92 5t-109 31t-88 75t-33 112.5z" />
<glyph unicode="2" horiz-adv-x="1333" d="M-32 167q0 82 29 116t92 70.5t150 80.5t190.5 94.5t207.5 106t201.5 116t172.5 123.5q166 139 166 261q0 97 -121 119q-33 6 -78.5 6t-106.5 -12t-117.5 -32t-105 -45.5t-84.5 -52.5q-77 -59 -77 -111.5t67 -87.5q-25 -36 -46 -47.5t-35 -11.5t-47 7.5t-64 22.5 q-75 39 -75 88.5t34.5 97.5t92.5 92t134.5 82t159.5 66q178 61 332 61q161 0 250 -81q78 -72 78 -186q0 -261 -410 -543q-180 -125 -409 -233q98 10 168.5 10t116.5 -2t93 -7q97 -10 162 -31.5t89 -50.5q26 -33 26 -69q0 -74 -59 -149q-114 39 -318 39q-362 0 -693 -101 q-21 -7 -39 -7t-40.5 9.5t-43.5 38.5q-43 58 -43 153z" />
<glyph unicode="3" horiz-adv-x="1268" d="M-16 92q0 55 7 88q38 -2 93 -2t145.5 9t190 34.5t183.5 64.5q172 81 212 200q10 27 10 59t-14 69q-163 -73 -297 -73q-43 0 -73 89q-23 69 -23 120q205 28 407 113q163 69 235 163q38 50 38 97.5t-17 72t-44 38.5q-50 26 -119.5 26t-136.5 -16t-128.5 -43t-113.5 -62 q-107 -71 -144 -147q-12 -26 -12 -42.5t3 -27.5q-28 -38 -50.5 -38t-40 9.5t-31.5 26.5q-33 38 -33 77.5t32 82t87 84.5t127.5 80.5t153.5 67.5q177 65 339.5 65t245 -66t82.5 -187q0 -148 -171 -306q-51 -47 -111 -89q132 -110 132 -269q0 -128 -79 -234.5t-193 -177.5 q-253 -159 -647 -159q-143 0 -208 93q-37 55 -37 110z" />
<glyph unicode="4" horiz-adv-x="1515" d="M95 673q311 233 847 512q246 127 418 199q57 -11 94 -71q11 -17 11 -42.5t-25.5 -80.5t-67 -127t-94 -158.5t-107.5 -184.5q339 -15 339 -115q0 -39 -48 -101q-70 22 -307 22h-43q-21 0 -43 -1q-145 -306 -174 -558q-49 -4 -84 -4t-81 2.5t-96 20.5q-106 39 -106 151 q0 133 172 359q-198 -26 -332 -69q-28 -9 -46.5 -9t-41.5 4t-51.5 23t-51.5 47.5t-39 59.5q-31 59 -43 121zM403 689q18 1 63.5 5t109.5 8q135 10 310 16q66 73 132 144.5t125 137.5q137 151 184 228q-219 -85 -655 -360q-164 -103 -269 -179z" />
<glyph unicode="5" horiz-adv-x="1137" d="M4 185.5q0 20.5 1 43t15 67.5q27 79 82 156q165 -79 284 -79q147 0 239 57q95 59 95 164q0 99 -136 208q-58 46 -114.5 84t-72.5 52q0 37 47.5 147t68.5 153q47 95 62 110t47 19.5t80 6.5q80 5 288 5l118 -1q158 0 187 7q1 -9 1 -20t-2 -31.5t-12 -45.5q-24 -61 -64 -61 q-90 0 -253.5 9t-209 11t-70.5 4l-57 -243q292 -131 366 -362q24 -72 24 -163t-41.5 -182t-116.5 -158q-162 -143 -423 -143q-303 0 -412 139q-21 26 -21 46.5z" />
<glyph unicode="6" horiz-adv-x="1243" d="M126 378.5q0 84.5 22 168t62 167.5t96 166t124 155.5t146 136.5t162 108q178 98 346 98q122 0 200 -60q39 -30 39 -57q0 -32 -25.5 -61t-38.5 -42q-80 109 -184.5 109t-191.5 -45t-161 -118q-149 -147 -228 -355q166 68 274.5 68t180.5 -32t114.5 -107.5t42.5 -177 t-44 -192.5t-122 -162q-174 -158 -414 -158q-297 0 -375 232q-25 74 -25 158.5zM448 521q0 -38 14 -75t42 -66q61 -63 161 -63q96 0 163 65q64 63 64 132q0 147 -183 147q-117 0 -255 -61q-6 -41 -6 -79z" />
<glyph unicode="7" horiz-adv-x="1053" d="M83 176q0 182 175 403q158 201 422 380q257 175 516 262q-195 18 -355 18q-424 0 -455 -110q-89 37 -89 122q0 53 105 87q99 31 249 31q349 0 585 -41q56 -9 89 -21q23 -11 23 -116v-23q-294 -110 -511 -348q-182 -199 -277 -448q-65 -171 -65 -302q0 -32 5 -59 q-95 -13 -135 -13t-81.5 0.5t-93.5 19.5q-107 39 -107 158z" />
<glyph unicode="8" horiz-adv-x="1341" d="M68 339q0 229 368 393q104 47 212 87q-85 73 -116 116q-60 82 -60 151t40 123t109 91q141 77 361 77q162 0 274 -71q118 -76 118 -194q0 -136 -228 -246q-67 -33 -140 -63q172 -152 172 -287q0 -221 -194 -368q-195 -148 -497 -148q-180 0 -297 90q-122 94 -122 249z M448 456q0 -35 11.5 -59t34.5 -42q47 -38 121.5 -38t124.5 19t84 48q70 60 70 123t-35 110t-86 94q-155 -63 -214.5 -105.5t-85 -78.5t-25.5 -71zM706 1112q0 -44 38 -85q54 -57 139 -123q157 58 214 93t81.5 63.5t24.5 64t-21 63t-54 44.5q-65 35 -131.5 35t-113.5 -10.5 t-87 -30.5q-90 -46 -90 -114z" />
<glyph unicode="9" horiz-adv-x="1205" d="M-59 178q0 32 7 65h9q402 0 700 236q89 70 155 148q-128 -62 -228.5 -62t-156.5 20.5t-92 56.5q-69 69 -69 185q0 189 155 364q99 113 236 161q70 25 155 25t154 -30t114 -85q90 -110 90 -308q0 -223 -113 -446q-195 -384 -577 -511q-135 -45 -253 -45t-169 26 q-117 60 -117 200zM463 939q0 -94 95 -125q33 -10 78.5 -10t93 9.5t92.5 25.5q94 33 154 79q18 63 18 114.5t-12.5 90.5t-38.5 67q-55 61 -159 61q-123 0 -224 -107q-97 -101 -97 -205z" />
<glyph unicode=":" horiz-adv-x="828" d="M180 44q0 35 24 74t64 70q91 69 190 69t144.5 -41t45.5 -107q0 -75 -114 -138q-105 -58 -198 -58q-63 0 -96.5 24.5t-46.5 48t-13 58.5zM431 587q0 32 24.5 67t60.5 64q80 64 138 64q42 0 83 -30q76 -57 76 -108q0 -62 -76 -127.5t-147 -65.5q-63 0 -97.5 27.5t-48 52 t-13.5 56.5z" />
<glyph unicode=";" horiz-adv-x="828" d="M-24 -256q150 90 246 183q34 33 46 58q-28 31 -28 77t19 80.5t51 59.5q70 55 158.5 55t134 -41t45.5 -101t-28.5 -115.5t-76 -108t-108 -98.5t-125.5 -80q-140 -74 -242 -74q-37 0 -78 73q-10 18 -14 32zM431 587q0 32 24.5 67t60.5 64q80 64 138 64q42 0 83 -30 q76 -57 76 -108q0 -62 -76 -127.5t-147 -65.5q-63 0 -97.5 27.5t-48 52t-13.5 56.5z" />
<glyph unicode="&#x3c;" horiz-adv-x="1085" d="M124 525q0 31 32.5 69.5t86.5 83.5t124 95t144.5 98t149 91.5t137.5 75.5q137 72 171 72q29 0 67 -58q9 -13 13 -21q-73 -34 -235.5 -148.5t-215 -154t-92.5 -72.5q-90 -73 -88.5 -90.5t20.5 -41.5t50 -54q58 -55 152.5 -127.5t216.5 -156.5q-4 -31 -46 -77 q-77 -87 -109 -87t-89.5 27.5t-122.5 72t-130 100t-117.5 112t-85.5 108.5t-33 83z" />
<glyph unicode="=" horiz-adv-x="1436" d="M269 376q0 38 13 85q100 -28 407 -28t466 26q4 -15 4 -26t-1 -24t-8 -31q-14 -41 -45 -53q-195 -70 -655 -70q-181 0 -181 121zM336 744q0 38 13 85q100 -28 407 -28t466 26q4 -15 4 -25.5t-1 -23.5t-8 -32q-15 -39 -45 -53q-118 -51 -475 -66q-96 -4 -180 -4 q-181 0 -181 121z" />
<glyph unicode="&#x3e;" horiz-adv-x="1085" d="M37 200q157 72 484 279q198 125 198 156q0 69 -365 423q21 29 46 40.5t38 11.5t44.5 -17t73 -46t89.5 -68t96 -82.5t92 -89t78 -87.5q75 -94 75 -144q0 -92 -350 -328q-213 -143 -362 -208q-43 -18 -65.5 -18t-50 19.5t-52.5 47.5q-49 57 -69 111z" />
<glyph unicode="?" horiz-adv-x="1130" d="M180 44q0 35 24 74t64 70q91 69 190 69t144.5 -41t45.5 -107q0 -75 -116 -138q-106 -58 -196 -58q-63 0 -96.5 24.5t-46.5 48t-13 58.5zM330 559.5q0 76.5 39 137t102.5 113t144.5 98.5t166 89.5t166 86.5t144 88q142 102 142 206q0 60 -40.5 93t-102 33t-126 -12 t-128 -33t-122.5 -51t-103 -65q-99 -77 -99 -157q0 -131 156 -48q12 -22 12 -37.5t-17.5 -32.5t-45.5 -34q-66 -41 -135 -41q-147 0 -147 135q0 108 126 222q115 106 294 178q182 72 336 72q199 0 266 -130q22 -44 22 -101t-28.5 -112t-75 -109.5t-106 -107.5t-121.5 -103 t-121.5 -96t-105.5 -87q-104 -90 -104 -137q0 -63 54 -87q58 -26 127 31q14 -3 21.5 -19t-12 -39t-59.5 -48.5t-85 -42.5q-89 -35 -162 -35t-118.5 13.5t-79.5 38.5q-74 54 -74 130.5z" />
<glyph unicode="@" horiz-adv-x="1500" d="M22 236q0 179 156 365q149 176 382 290q241 118 476 118q293 0 381 -187q30 -63 30 -143t-18.5 -149.5t-51.5 -131.5t-80.5 -114t-104.5 -90q-120 -80 -262 -80q-104 0 -140 62q-12 22 -11 52q-103 -114 -238 -114q-89 0 -143 54q-52 52 -52 122.5t22.5 124.5t62 104 t94.5 92.5t120 73.5q140 67 286 67q51 0 70 -33q5 6 8.5 12t11.5 15q26 31 107 11q-101 -242 -101 -351q0 -67 43 -67t87.5 28t80.5 75q80 108 80 239q0 123 -84 189q-77 61 -216 61q-170 0 -362 -91q-196 -94 -322 -234q-138 -156 -138 -318q0 -106 50 -178 q111 -160 366 -160q87 0 177 21q32 -46 7.5 -67.5t-59.5 -40t-73 -31.5q-74 -24 -165.5 -24t-180 27.5t-154.5 81.5q-142 116 -142 319zM584 412q0 -41 13 -57t49.5 -16t78.5 31t83 78q57 68 149 206q-171 -4 -275 -81q-98 -72 -98 -161z" />
<glyph unicode="A" horiz-adv-x="2139" d="M32 739q0 150 210 241q195 85 475 85q125 0 274 -32q375 312 769 457q190 70 336 70q68 0 101.5 -30.5t33.5 -77t-24.5 -115.5t-61.5 -153.5t-79.5 -181.5t-79.5 -198q-86 -235 -86 -398q0 -119 105 -119q30 0 66 15q19 -13 31 -34.5t12 -37.5t-12.5 -46t-35.5 -60.5 t-55.5 -58.5t-71.5 -50q-86 -49 -180 -49q-66 0 -136 24q-141 47 -201 194q-30 76 -30 173t30 182.5t78.5 168t111 159.5t128 147.5t128 132.5t110.5 115q109 117 109 161q0 23 -42 23q-182 0 -415 -136q-225 -132 -422 -341q159 -57 193 -103q17 -22 17 -45q0 -30 -30 -59 q-149 72 -267 109q-255 -308 -301 -597q-7 -47 -7 -94.5t9 -95.5q-100 -74 -206 -110q-37 -13 -60 -13t-47.5 12t-44.5 37q-48 56 -48 149t33.5 188t92.5 192q111 183 320 381q-82 5 -163 5t-169 -21q-186 -44 -222 -168q-7 -22 -7 -57.5t24 -91.5q-17 -31 -71 -31 q-10 0 -22 1q-76 7 -119 41q-81 64 -81 141z" />
<glyph unicode="B" horiz-adv-x="1767" d="M78 554q0 31 80 53q81 -114 288 -195q63 84 170 239t167 241.5t120 166.5q133 177 231 268q16 16 39 16q22 0 52 -14q16 -7 26 -16q-83 -84 -224 -334q92 -22 161 -22t137 15.5t124 45.5q129 67 129 165q0 191 -291 263q-114 29 -227.5 29t-213.5 -15.5t-178 -48.5 q-172 -73 -172 -207q0 -113 84 -190q-91 -97 -145 -97q-62 0 -116 67q-55 69 -55 151t34.5 144t93.5 110.5t136.5 84.5t164.5 60q169 47 304 47t225.5 -11.5t172.5 -35.5t152 -60t122 -85q109 -104 109 -249q0 -116 -97 -208q-87 -85 -234 -127q248 -116 248 -335 q0 -196 -154 -325q-205 -172 -559 -172q-263 0 -487 100q-219 98 -334 273q-83 127 -83 208zM677 345q117 -23 189 -23t122 3.5t108.5 19.5t100.5 45q92 62 92 170q0 105 -107 172q-98 61 -253 67l-66 -124t-65 -121q-68 -124 -121 -209z" />
<glyph unicode="C" horiz-adv-x="1361" d="M105 518q0 110 29 207t81.5 189t124.5 176t158.5 157.5t183 133t198.5 101.5q213 90 405 90q195 0 265 -110q25 -38 25 -86t-15 -82.5t-38 -59.5q-48 -52 -91 -52q-40 0 -121 61q-18 14 -24 21q54 65 54 120q0 41 -28.5 59.5t-92.5 18.5t-156 -32.5t-176.5 -88.5 t-158 -131.5t-127.5 -162.5q-116 -187 -116 -365q0 -179 125 -296q145 -136 379 -136q240 0 423 144q74 59 128 142h6q39 0 39 -37q0 -16 -10 -39q-80 -189 -257 -320q-263 -194 -589 -194q-202 0 -357 87q-167 93 -233 279q-34 96 -34 206z" />
<glyph unicode="D" horiz-adv-x="1833" d="M55 519q0 9 4 20t15 21q19 16 58 25q99 -136 281 -204q67 86 178 244.5t175 248.5t127 174q140 186 241 279q16 16 39 16q22 0 52 -14q16 -7 26 -16q-76 -78 -157.5 -220.5t-133 -239.5t-101.5 -192q-125 -238 -187 -335q48 -4 128.5 -4t190.5 34t210 92.5t186 136.5 t149 167q135 189 135 367q0 363 -604 363q-200 0 -370 -68q-196 -79 -196 -200q0 -113 84 -190q-91 -97 -145 -97q-60 0 -107 77q-46 76 -46 160.5t37 145t99.5 107t144 79t170.5 52.5q171 40 352 40q829 0 829 -607q0 -236 -138 -467q-143 -238 -383 -383 q-262 -159 -578 -159q-276 0 -487 132q-231 144 -277 399q-1 7 -1 16z" />
<glyph unicode="E" horiz-adv-x="1328" d="M140 374q0 273 236 448q219 162 514 172q-165 105 -165 247q0 139 237 233q217 85 456 85q175 0 234 -102q19 -34 19 -73t-10.5 -73.5t-28.5 -62.5q-42 -63 -98 -63q-35 0 -83 40q-12 10 -18 17q44 52 44 124q0 83 -112 83q-128 0 -272 -45q-176 -56 -176 -141 q0 -134 247 -229q86 -33 200 -57q-38 -145 -50 -159.5t-17 -12.5q-143 49 -287 49q-229 0 -368 -114q-114 -92 -114 -225q0 -95 86 -155q88 -61 232 -61q192 0 378 136q49 -45 49 -63q0 -82 -88 -176q-141 -152 -353 -205q-72 -18 -172.5 -18t-202.5 29t-173 82 q-144 109 -144 290z" />
<glyph unicode="F" horiz-adv-x="1404" d="M56 1256.5q0 53.5 39.5 100.5t104.5 82.5t149.5 60.5t175.5 40q173 30 294 30t190.5 -6.5t133 -20.5t118 -37t95 -56t63.5 -78t23 -123.5t-45 -225.5q114 -17 208 -48q29 -10 29 -66q0 -12 -2 -26q-133 23 -275 26q-136 -359 -373 -643q-170 -202 -349 -283 q-93 -42 -170.5 -42t-121.5 24.5t-73 64.5q-55 79 -55 174.5t20 164.5t48 127q53 109 112 163q16 15 38 15q27 0 64 -23q-26 -71 -26 -128q0 -165 96 -165q169 0 397 287q89 113 171 257q-220 -19 -323 -74q-33 -18 -47 -39q-63 46 -63 91t51 80q117 81 418 81h17q9 0 17 -1 q72 155 72 218.5t-35.5 98t-93.5 57.5q-112 43 -277 43q-184 0 -365 -51q-210 -59 -210 -154q0 -54 39 -125q-60 -63 -151 -63q-45 0 -88 72q-40 67 -40 120.5z" />
<glyph unicode="G" horiz-adv-x="1694" d="M128 474q0 114 30.5 212.5t86 193t131.5 183.5t167.5 167.5t195 143.5t212.5 112q231 98 440 98q382 0 382 -179q0 -51 -76 -109q-84 116 -233 162q-51 15 -125 15t-171 -30t-188 -83t-171 -126.5t-139 -161.5q-129 -188 -129 -379t94.5 -287.5t270.5 -96.5q126 0 264 63 q227 105 312 295q30 66 34 140q-219 -115 -411 -115q-191 0 -259 94q-24 33 -24 73t28.5 72t76 59t107.5 48t124 36q131 31 234 31q162 0 228 -107q55 38 114 91q46 -39 46 -69q0 -10 -28.5 -42.5t-93.5 -80.5q10 -52 10 -131.5t-37.5 -179t-104 -191t-157 -170 t-195.5 -136.5q-226 -124 -456 -124q-422 0 -548 296q-42 99 -42 213zM1043 895q0 -58 138 -58q153 0 322 88q-28 71 -123 71q-148 0 -275 -50q-62 -24 -62 -51z" />
<glyph unicode="H" horiz-adv-x="1908" d="M51 274.5q0 81.5 23.5 172.5t68 177.5t109 164.5t146.5 137q180 127 395 127q95 0 220 -28q150 332 170 556q60 0 89 -28q7 -7 7 -34q0 -60 -35 -217q-30 -138 -86 -314q296 -81 404 -101q150 312 324 565q50 73 90 123q13 15 29.5 15t31.5 -6q26 -9 56 -33 q-107 -134 -251 -487q-43 -103 -77 -202q38 -2 76 -2t77 3q-6 -81 -42 -127q-19 -23 -62.5 -23t-94.5 6q-42 -145 -42 -199.5t3.5 -87t15.5 -58.5q25 -57 87 -57q113 0 237 131q39 40 71 88h6q39 0 39 -37q0 -41 -49.5 -119t-94.5 -134t-97 -108t-106 -92q-118 -89 -203 -89 q-232 0 -232 245q1 213 150 558q-100 27 -194.5 60t-187.5 61q-204 -573 -468 -819q-159 -148 -322 -148q-211 0 -264 214q-17 65 -17 146.5zM319 530q0 -199 133 -199q138 0 342 297q91 133 170 293q-76 16 -177.5 16t-194.5 -37.5t-154 -95.5q-119 -115 -119 -274z" />
<glyph unicode="I" horiz-adv-x="1189" d="M61 307q0 138 113 285q66 86 106 92q16 2 30 2q22 0 40 -5q-26 -71 -26 -115.5t11 -80t33 -61.5q48 -57 128 -57t151.5 47.5t141.5 125t134 175.5t113 199q107 221 107 362q0 130 -124 152q-39 7 -80.5 7t-81.5 -4.5t-80.5 -14.5t-78 -25t-66 -36t-46 -49t-17.5 -67.5 t39 -117.5q-33 -37 -116 -61q-22 -6 -42.5 -6t-43.5 21t-41 51q-40 67 -40 114.5t31.5 90t84 78t120 63t139.5 46.5q149 39 292 39q296 0 296 -297q0 -253 -166 -604q-173 -366 -402 -562q-169 -144 -328 -144q-160 0 -249 104q-82 96 -82 253z" />
<glyph unicode="J" horiz-adv-x="1208" d="M2 -198.5q0 92.5 31.5 169.5t88 146.5t134 129t168.5 104.5q194 95 403 109q212 318 284 610q25 101 25 194t-44 134t-140 41q-127 0 -264 -55q-160 -66 -160 -170q0 -44 39 -115q-39 -44 -92 -44q-46 0 -111 58q-61 56 -61 102t31 90.5t82.5 83t120 69.5t143.5 53 q155 46 271.5 46t176.5 -18t96 -55q64 -69 64 -215t-24 -282.5t-67 -278t-103 -281.5t-132.5 -267.5t-155 -237t-170.5 -189.5q-189 -172 -359 -172q-119 0 -197 75q-78 73 -78 165.5zM346 76q0 -45 41 -45q87 0 248 179q50 55 101 122q-179 -32 -288 -110 q-102 -72 -102 -146z" />
<glyph unicode="K" horiz-adv-x="1637" d="M10 38q64 57 160 223t162 288t133 248t132.5 248t122.5 223q129 227 185 278q16 14 38.5 14t52.5 -14q16 -8 30 -20q-114 -155 -273 -561q333 88 623 273q176 112 262 224q43 55 55 105q139 -23 139 -88q0 -111 -402 -369q-162 -104 -350 -203q36 -36 64.5 -113t45 -128 t36.5 -101t44 -95t56 -80q70 -75 166 -75q75 0 174 68q96 66 154 153h6q39 0 39 -37q0 -46 -56.5 -135t-105 -143.5t-105 -100.5t-118.5 -80q-134 -71 -247.5 -71t-180 26t-111.5 70.5t-71 103t-41 123t-22 132t-13 128.5q-16 149 -44 200q-50 -20 -87 -30 q-35 -98 -68.5 -192t-65.5 -177.5t-62.5 -154.5t-59.5 -122q-61 -108 -109 -108q-108 0 -238 46q-35 12 -50 24z" />
<glyph unicode="L" horiz-adv-x="1514" d="M-35 152.5q0 46.5 19 79.5t50 58q69 54 133 54t108 -6q127 87 259 308q57 97 112 203.5t112.5 210t119.5 197t134 165.5q157 155 344 155q148 0 226 -85q69 -76 69 -199q0 -195 -151 -365q-93 -103 -196 -145q-53 -21 -98 -21t-74 22q-65 51 -65 141q0 27 9 48 q23 -3 49.5 -3t67.5 8t89.5 31t90.5 57t73 75q66 87 66 174q0 103 -80 143q-27 14 -80 14t-110 -33t-104.5 -89.5t-87 -132.5t-74 -161.5t-66 -176.5t-62 -178t-62 -165t-66.5 -138q-78 -132 -169 -143q277 -92 513 -125q50 -7 87 -7t72 7t65 22q68 33 94 89q70 -5 70 -54.5 t-15 -100t-41.5 -96.5t-63 -86t-80.5 -69q-92 -62 -186.5 -62t-169 18t-140 45.5t-125.5 60.5t-119 63q-141 69 -254 79q-100 -25 -139.5 -25t-64.5 12.5t-45 33.5q-44 46 -44 92.5z" />
<glyph unicode="M" horiz-adv-x="2407" d="M-65 250q0 100 51 183q28 45 63 66q135 -96 272 -96q202 0 401 221q175 195 346 567q46 100 84 188q-74 74 -194 74q-170 0 -300 -95q-138 -99 -138 -240q0 -110 103 -208q-38 -52 -119 -88q-22 -10 -45 -10t-52.5 14t-52.5 40q-52 59 -52 141t29 152t79 130.5 t116.5 109.5t141.5 85q157 73 306.5 73t249.5 -54q232 -125 232 -564q0 -133 -21 -296q170 193 659 595q67 54 125 104q54 137 89 180q57 71 98 71t56 -20.5t15 -39t-10.5 -38.5t-26.5 -43q-33 -46 -72 -89q-99 -537 -99 -1083q0 -195 -161 -266q-73 -32 -158 -32 q-128 0 -220 61q-36 24 -56 55q109 91 319 614q84 210 155 428l-197 -197q-375 -375 -543 -604q-15 -118 -84 -249q-43 -79 -70.5 -105t-41.5 -26q-94 0 -199 56t-105 105q0 66 124 209q34 40 69 75q154 337 154 640q0 36 -5.5 107t-42.5 149q-140 -460 -401 -852 q-184 -275 -377 -389q-100 -59 -200 -59t-163 31q-131 65 -131 219z" />
<glyph unicode="N" horiz-adv-x="1766" d="M107 182.5q0 94.5 30.5 196.5t76.5 209t99 214.5t99 207.5q107 233 107 344q0 97 -13 130q-25 60 -72 62q3 67 72 67t117 -51q73 -76 73 -232q0 -181 -95 -400q237 299 431 448q234 180 443 180q200 0 260 -158q20 -53 20 -126.5t-20.5 -141.5t-52 -132.5t-67.5 -128.5 t-67 -134q-73 -161 -73 -322q0 -96 76 -121q23 -7 51.5 -7t64.5 15q19 -13 31 -34.5t12 -37.5t-12.5 -46t-35.5 -60.5t-55.5 -58.5t-71.5 -50q-86 -49 -180 -49q-66 0 -136 24q-141 47 -201 194q-30 76 -30 163.5t26.5 153.5t69.5 129.5t98 124t112 118.5t112 113t98 108 q96 117 96 199q0 104 -92 133q-27 8 -82 8t-137.5 -38t-164 -104t-159.5 -155t-147.5 -192t-126.5 -214q-168 -328 -168 -573q0 -28 2 -54q-29 -33 -101 -68q-133 -63 -167.5 -63t-58.5 13.5t-44 40.5q-47 61 -47 155.5z" />
<glyph unicode="O" horiz-adv-x="1532" d="M56 470q0 272 171 531q161 244 425 399q268 158 545 158q197 0 317 -92q131 -101 131 -280q0 -136 -105 -250q5 -13 5 -24q0 -240 -133 -469q-128 -222 -338 -359q-219 -144 -458 -144q-248 0 -401 138q-159 143 -159 392zM474 677q0 -190 84.5 -285t240.5 -95 q216 0 407 177q178 164 241 384q-107 -72 -207 -72q-41 0 -64 26q-38 40 -50 69q187 95 256 243q24 52 24 109q0 105 -59 160t-173.5 55t-200.5 -31t-161.5 -84.5t-137.5 -127t-106 -159.5q-94 -179 -94 -369z" />
<glyph unicode="P" horiz-adv-x="1525" d="M71 66q51 54 120 187.5t118 231.5t102.5 201t110 204.5t114.5 191.5q129 198 236 278q12 10 26.5 10t29.5 -5q33 -11 58 -34q-125 -100 -258 -525q-38 -119 -74 -237.5t-69.5 -228.5t-66.5 -194q-71 -185 -127 -185q-177 0 -277 72q-25 18 -43 33zM147 1145 q0 85 40.5 148.5t107.5 112.5t153.5 85t179.5 59q184 47 309.5 47t210.5 -10.5t164 -34.5t149 -61.5t123 -90.5q112 -115 112 -287q0 -178 -112 -365q-108 -181 -280 -300q-183 -125 -369 -125q-91 0 -160 45q-33 23 -34 53.5t1 55.5q8 103 45 242q73 -30 156 -30t138 17.5 t110.5 49.5t107 76t91.5 98q87 118 87 224t-48.5 167.5t-124.5 98.5q-143 71 -353 71q-181 0 -370 -73q-132 -52 -190 -132q-30 -42 -30 -92q0 -113 84 -190q-91 -97 -145 -97q-60 0 -107 77q-46 76 -46 161z" />
<glyph unicode="Q" horiz-adv-x="1668" d="M108 396q0 260 164 538q165 279 426 456q283 192 583 192q182 0 283 -82q96 -78 96 -201q0 -279 -347 -555q-139 -111 -294 -182q12 -85 90 -238q164 86 291 236q125 150 135 278h5q40 0 63 -42q7 -14 7 -65.5t-28 -141.5t-78 -175q-99 -171 -267 -306q243 -354 434 -354 q58 0 118 27q26 -29 26 -45t-13 -35t-48 -53t-82 -63q-112 -68 -232 -68q-291 0 -457 438q-163 -69 -299.5 -69t-239 32t-177.5 96q-159 134 -159 382zM512 571q0 -162 87.5 -242t243.5 -80q28 0 56 4q-45 211 -45 344q265 106 453 291q198 195 198 388q0 136 -133 182 q-43 14 -124 14t-180.5 -32.5t-184.5 -91.5t-153.5 -142t-117.5 -183q-100 -207 -100 -452z" />
<glyph unicode="R" horiz-adv-x="1847" d="M75 287q0 77 24 177.5t70.5 207.5t113 215t151.5 208t187 187t218 152q249 138 517 138q248 0 396 -112q157 -119 157 -328q0 -199 -131 -370q-121 -156 -310 -241q53 -128 79 -168q53 -80 102.5 -80t105.5 25t107 64q105 79 168 174h6q39 0 39 -37t-51 -125.5 t-95.5 -146.5t-98.5 -110.5t-116 -92.5q-136 -86 -278 -86q-297 0 -297 406q0 56 4 112q-147 13 -209 141q-22 44 -28 104q-242 -453 -409 -615q-111 -108 -201 -108q-99 0 -160 82t-61 227zM380 432q0 -90 34 -90q63 0 410 524q143 216 271 434q19 32 51 32q24 0 56 -17 q17 -9 25 -15q-56 -87 -184 -335q81 53 119.5 53t67 -21t54.5 -57q44 -62 94 -186q136 57 230 180q97 127 97 254q0 279 -380 279q-281 0 -504 -176q-183 -144 -305 -387q-100 -196 -129 -386q-7 -49 -7 -86zM1075 850.5q0 -14.5 2 -32.5t25 -48t67 -43q6 60 6 95 q0 86 -36 86t-50 -21.5t-14 -36z" />
<glyph unicode="S" horiz-adv-x="1368" d="M65 448q0 88 9.5 99t21.5 19q21 14 51 22q82 -210 303 -270q71 -20 143.5 -20t129 12.5t98.5 39.5q91 60 91 181q0 92 -73 205q-31 50 -67 99.5t-67 100.5q-73 117 -73 200.5t23.5 139t64.5 100t96.5 78.5t120.5 57q130 46 276 46q138 0 217 -28.5t112.5 -58.5t33.5 -59 t-9 -48.5t-23 -38.5q-30 -39 -59 -59q-69 110 -230 155q-52 14 -109.5 14t-114.5 -14t-100 -40q-97 -56 -97 -146q0 -49 34.5 -98t86 -102t111.5 -111t111 -124q121 -154 121 -303.5t-56 -259t-151 -182.5q-190 -149 -479 -149q-244 0 -399 167q-76 81 -112 184.5t-36 191.5 z" />
<glyph unicode="T" horiz-adv-x="1199" d="M83 1059q0 76 38 129t102.5 92t151.5 65t185 44t201.5 29t202.5 19.5t187.5 16.5t156.5 19q147 24 155 64t22 74.5t33 61.5q42 60 91 59.5t80 -48.5q30 -47 30 -99.5t-24 -83.5t-66.5 -54.5t-101.5 -40.5t-128 -29q-109 -19 -304 -36q2 -44 2 -84.5t-1.5 -100t-9 -148.5 t-19 -177t-25.5 -165q-28 -160 -55.5 -226t-64.5 -127t-81.5 -116t-94.5 -102.5t-102 -82.5q-110 -75 -199 -75q-88 0 -180 101q-91 100 -91 206q0 54 31.5 102.5t83.5 96t119.5 96.5t139.5 106t143.5 123.5t130.5 149.5q134 186 161 413q-310 -28 -414 -56.5t-156.5 -66.5 t-52.5 -85t7.5 -76.5t16.5 -53.5t16.5 -43t7.5 -34q0 -27 -68 -59q-62 -29 -90.5 -29t-54.5 20.5t-51 53.5q-61 81 -61 157z" />
<glyph unicode="U" horiz-adv-x="1566" d="M103 277.5q0 78.5 37.5 166t93.5 176t122 178.5t122 182q131 214 131 358.5t-106 159.5q14 58 60.5 58t81 -20t58.5 -56q50 -75 50 -197q0 -152 -120 -415t-120 -379t91 -116q154 0 394 231q241 231 416 546q125 226 175 434q13 2 25 2q75 0 75 -75q0 -105 -97 -331 q-42 -97 -90 -202t-90 -208q-97 -236 -97 -372q0 -100 38 -154q25 -36 55 -36q15 0 31 10q35 -23 35 -43t-15.5 -48t-41.5 -58t-60.5 -59t-73.5 -52q-85 -52 -155.5 -52t-117.5 23q-111 55 -111 216q0 38 7 81q-61 -84 -198 -158q-161 -88 -322 -88q-200 0 -262 165 q-21 54 -21 132.5z" />
<glyph unicode="V" horiz-adv-x="1456" d="M-31 1003q0 78 21.5 145t59.5 128t89 113t109 91q124 81 238.5 81t194 -42t137 -114.5t94.5 -170.5q78 -205 78 -481q0 -98 -10 -194q228 215 348 393q161 239 161 448q0 119 -51 189q41 35 75.5 35t58 -16.5t38.5 -43.5q29 -52 29 -131.5t-26 -173t-70 -191t-102 -196.5 t-122.5 -194t-131.5 -184.5t-129 -167.5t-114.5 -142t-88.5 -110q-91 -184 -201 -184q-73 0 -174 71q-105 74 -105 137q0 52 77 120q19 18 34 27q104 186 170 505q37 181 37 333q0 246 -103 335q-48 41 -108 41t-109 -27t-91 -74q-95 -107 -95 -240q0 -110 103 -208 q-38 -52 -118 -88q-23 -10 -46 -10t-52.5 14t-53.5 40q-51 59 -51 137z" />
<glyph unicode="W" horiz-adv-x="2109" d="M73 1313q0 33 18.5 61.5t50 55t72 49.5t84.5 41q93 37 167 37h5q183 0 242 -132q29 -63 29 -145t-14.5 -167t-39 -174.5t-47.5 -168.5q-59 -198 -59 -235q0 -79 59 -79q85 0 244 168q171 182 328 459q35 85 83.5 211.5t62.5 161t34 53.5t42 29q35 18 72 18t44 -24t-1 -59 q-16 -69 -64 -151q-91 -378 -91 -684q0 -243 71 -243q124 0 293 215q163 207 255 468q64 180 64 310.5t-51 200.5q41 35 75.5 35t58 -16.5t38.5 -43.5q29 -51 29 -135t-24 -198t-67.5 -235t-103 -244.5t-131 -237.5t-152 -213t-165.5 -173q-182 -158 -338 -158 q-227 0 -227 289q0 132 48 330q-288 -420 -587 -552q-106 -47 -214 -47q-128 0 -170 112q-13 33 -13 90t20 139.5t52.5 167t74 170t85 167t84.5 157.5q142 263 142 351.5t-108 88.5q-121 0 -251 -127q-32 -32 -50 -57q-59 31 -59 64z" />
<glyph unicode="X" horiz-adv-x="1628" d="M23 170q0 103 49 247q102 -40 189 -40t155 16t137 45q135 58 274 162q-13 101 -24 204t-26.5 199.5t-38 181.5t-57.5 151q-76 141 -210 156q5 82 61 82q228 0 389 -214q92 -122 145 -249.5t84 -209.5q233 264 322 511q28 77 32 141q30 6 48 6q17 0 24 -5q29 -19 29 -74 t-13.5 -124t-62.5 -182q-104 -236 -301 -488q63 -177 104 -245.5t75 -97t73.5 -28.5t85 18.5t90.5 49.5q96 66 154 153h6q39 0 39 -37q0 -16 -24.5 -75t-91 -147t-150.5 -157q-186 -150 -384 -150q-193 0 -282 210q-28 65 -47 141q-379 -320 -723 -320q-130 0 -130 169z" />
<glyph unicode="Y" horiz-adv-x="1361" d="M63 358q0 23 8.5 32t20.5 17q21 14 51 22q27 -55 101 -97q79 -46 158 -46q138 0 287 143q95 221 95 488q0 212 -62 357q-76 176 -203.5 176t-209.5 -114q-41 22 -41 60q0 12 4 25q16 53 88 93q82 45 183 45t181.5 -51t141.5 -144q126 -189 159 -503q54 79 108.5 160 t110.5 158t113.5 147t116.5 128q129 125 250 170q5 2 10.5 2t13.5 -2.5t18 -10.5q23 -18 29 -41q-228 -153 -415 -542q-54 -112 -104 -226.5t-99.5 -227.5t-102 -215.5t-111.5 -190t-129 -152.5q-149 -137 -339 -137q-205 0 -330 191q-67 102 -84.5 182.5t-17.5 103.5z" />
<glyph unicode="Z" horiz-adv-x="1477" d="M-44 198q0 91 36 131q29 31 153 90t221 104t203 95t215.5 105.5t212.5 114t193 119.5t158 123q145 132 145 242q0 70 -59 95q-64 27 -184.5 27t-198 -6.5t-151 -19.5t-139 -32t-114.5 -44q-107 -53 -107 -115.5t67 -97.5q-31 -45 -57 -45t-59 7.5t-63 22.5q-76 39 -76 94 t36 104t100 88.5t151 69.5t189 50q202 41 377 41t256.5 -20.5t135.5 -58.5q107 -74 107 -203q0 -236 -534 -604q-235 -162 -533 -321q151 12 276 12q238 0 377 -44q120 -41 120 -119q0 -47 -44 -107q-17 -22 -31 -41q-97 33 -312 33q-360 0 -711 -69q-106 -21 -156 -36.5 t-68.5 -15.5t-42.5 12.5t-45 44.5q-44 69 -44 174z" />
<glyph unicode="[" horiz-adv-x="988" d="M118 -234q0 210 220 694q190 420 425 800q142 229 224 302q21 18 80.5 18t91 -1.5t65.5 -6.5q103 -13 103 -31q0 -30 -32 -78q-118 16 -223 11q-116 -111 -404 -902q-150 -413 -213 -683q52 -16 127 -22t98 -4q-51 -194 -87 -198q-24 -4 -68 -4t-97 3.5t-108 12 t-100 21.5q-102 28 -102 68z" />
<glyph unicode="\" horiz-adv-x="1016" d="M260 1650q45 16 74 16q60 0 230 -824q115 -560 154 -888q8 -71 8 -99.5t-9.5 -46t-32.5 -29.5q-46 -24 -160 -26q2 26 2 65t-4.5 119t-18 212t-32.5 284.5t-41.5 306.5t-46.5 301.5t-47 270.5q-51 269 -76 338z" />
<glyph unicode="]" horiz-adv-x="1149" d="M30 -259.5q0 65.5 25 133.5q122 -8 188 2q86 111 355 678q295 624 378 906q-53 11 -238 17q4 52 22 76t36.5 27.5t49.5 4.5t67.5 1t74.5 -2q134 -9 134 -34t-28 -152t-58 -240t-66.5 -235t-76 -245.5t-81 -244.5t-82 -231t-78 -205.5t-70.5 -168.5q-68 -154 -99 -177 q-25 -19 -108.5 -19t-131 2t-93.5 6.5t-77.5 11t-37 15t-5.5 74z" />
<glyph unicode="^" horiz-adv-x="1200" d="M161 400q90 62 208 162.5t168 148.5q114 110 132 161q74 -8 88 -20q54 -157 164 -337q54 -89 92 -115q-16 -35 -43 -54t-47 -19t-57 22t-74 57q-70 65 -131 161q-96 -80 -190.5 -138.5t-142 -81t-63 -22.5t-30 8t-29.5 20q-36 28 -45 47z" />
<glyph unicode="_" horiz-adv-x="1279" d="M-38 0l38 124h1278l-38 -124h-1278z" />
<glyph unicode="`" horiz-adv-x="1200" d="M548 1342q0 37 58 80q54 40 91 40q39 -117 141 -268q48 -72 77 -92q-11 -30 -35 -45.5t-40.5 -15.5t-49 14t-66 37.5t-65.5 54t-57 63.5q-54 75 -54 132z" />
<glyph unicode="a" horiz-adv-x="1177" d="M38 270q0 153 120 297q116 140 304 228q195 91 403 91q79 0 113 -25q27 32 48.5 37.5t33.5 5.5q38 0 81 -11q-4 -13 -17 -44.5t-29 -74.5t-34 -94q-65 -182 -65 -272.5t57 -90.5q74 0 165 67q81 61 142 152h6q39 0 39 -37q0 -34 -41.5 -104t-80.5 -121t-87 -100t-102 -88 q-121 -86 -236 -86q-146 0 -196 88q-16 27 -16 47.5v24.5q-137 -160 -334 -160q-125 0 -200 75q-74 74 -74 195zM360 433q0 -116 97 -116q107 0 252 173q77 92 134.5 176t87.5 128q-250 -2 -415 -114q-156 -106 -156 -247z" />
<glyph unicode="b" horiz-adv-x="1070" d="M44 321q0 192 350 694q148 214 253 334q29 33 78 33q54 0 79 -40q-206 -323 -305 -536q134 79 261 79q202 0 254 -154q16 -47 16 -117q0 -152 -112 -313q94 13 182 74.5t153 160.5h6q39 0 39 -37q0 -16 -10 -39q-190 -461 -923 -461h-2q-135 0 -223 79q-96 87 -96 243z M383 423q0 -43 26 -72.5t67.5 -29.5t84.5 14.5t84 39.5t78 58.5t65 72.5q60 84 60 159q0 48 -24 73q-40 42 -89.5 42t-100.5 -20.5t-96 -55.5q-97 -73 -142 -175q-13 -63 -13 -106z" />
<glyph unicode="c" horiz-adv-x="851" d="M50 333q0 132 104 265q97 125 245 205q151 82 282 82q71 0 110 -24q68 -42 68 -80q0 -41 -39 -55q-76 40 -134.5 40t-106 -26.5t-83.5 -69.5q-76 -91 -76 -202q0 -84 60 -132q55 -46 162 -46t210.5 63.5t181.5 182.5h6q39 0 39 -37q0 -16 -24.5 -74.5t-88.5 -144.5 t-148 -152q-182 -143 -396 -143q-173 0 -272 89q-100 90 -100 259z" />
<glyph unicode="d" horiz-adv-x="1197" d="M38 271q0 138 117 283q115 144 295 236q192 97 392 97q80 0 80 -64q0 -7 -1 -15q-230 0 -401 -124q-75 -55 -117.5 -121t-42.5 -128q0 -116 98 -116q141 0 284 176q50 62 116.5 173.5t109 182t87 144t85.5 140.5q101 165 125 198q36 50 85 50q57 0 83 -41 q-110 -173 -205 -367t-132 -283q-84 -202 -84 -288.5t61 -86.5q74 0 165 67q81 61 142 152h7q37 0 37 -35.5t-42 -106.5q-40 -69 -79 -120t-87 -100t-102 -88q-121 -86 -236 -86q-147 0 -196 88q-17 30 -16 72q-85 -103 -242 -144q-53 -14 -114 -14t-111.5 19.5t-86.5 54.5 q-74 73 -74 195z" />
<glyph unicode="e" horiz-adv-x="951" d="M50 312.5q0 82.5 28.5 151.5t78.5 131.5t119 115.5t150 91q172 83 351 83q129 0 177 -81q17 -28 17 -74.5t-23.5 -91.5t-63.5 -81.5t-93 -64t-113 -47.5q-106 -36 -243 -52q58 -104 263 -104q128 0 241.5 62.5t194.5 184.5h6q39 0 39 -37q0 -45 -53.5 -129.5t-100 -136.5 t-104 -96.5t-123.5 -76.5q-143 -70 -301 -70q-318 0 -413 176q-34 64 -34 146.5zM421 486q128 15 220 71q97 60 97 140.5t-74 80.5q-96 0 -167 -92q-68 -88 -76 -200z" />
<glyph unicode="f" horiz-adv-x="882" d="M-8 -110q0 172 118 449q-64 80 -64 141q0 28 18.5 45.5t47.5 34.5q53 32 139 65q171 309 374 537q208 234 325 234q51 0 85 -48q34 -47 34 -113t-21 -124.5t-58 -114t-88.5 -107t-112.5 -93.5q-127 -89 -267 -125q112 -40 140 -239q7 -55 7 -88.5v-40.5q25 -7 63.5 -7 t86.5 20t93 53q84 63 153 167h6q39 0 39 -37q0 -29 -38 -101t-70.5 -120.5t-71 -94.5t-80.5 -82q-94 -79 -183 -79q-15 0 -34 3q-52 -221 -159 -365q-121 -161 -269 -161q-110 0 -165 117q-48 102 -48 274zM369 -26q0 -74 6.5 -117.5t30.5 -43.5q31 0 64 72q29 60 53 173 q-70 28 -145 70q-9 -80 -9 -154zM449 470q40 -60 103 -109q-5 177 -71 209zM564 790q141 42 253 164q113 123 113 239q0 57 -33.5 57t-73.5 -35t-83 -97q-90 -128 -176 -328z" />
<glyph unicode="g" horiz-adv-x="1099" d="M-92 -220q0 50 48 100q49 51 103 63q43 -55 179 -90q35 -9 67.5 -9t71 23.5t76.5 64.5q70 77 148 218q-144 -150 -318 -150q-106 0 -175 75q-70 76 -70 195q0 153 120 297q116 140 304 228q195 91 403 91q71 0 106 -20q43 49 99 49q33 0 56 -19q-99 -158 -204 -470 l-58 -172q174 24 336 182q48 48 82 100h6q39 0 39 -37q0 -16 -24 -73t-81.5 -131t-128.5 -131q-140 -111 -314 -149q-94 -242 -205 -365q-135 -150 -323 -150q-134 0 -235 77q-108 83 -108 203zM360 433q0 -116 97 -116q138 0 363 317q34 47 64 91q12 22 38 69 q-249 -6 -408 -116q-154 -105 -154 -245z" />
<glyph unicode="h" horiz-adv-x="1224" d="M50 249q0 211 233 540q205 289 444 484q151 123 223 123q53 0 94 -49q45 -52 45 -106.5t-23.5 -98t-63 -87.5t-93 -87t-113.5 -81q-124 -80 -243 -120q-43 -95 -85 -211q202 182 471 254q86 23 145 23t71 -20.5t4.5 -54.5t-28.5 -77t-43 -89q-55 -119 -55 -170 q0 -105 67 -105q74 0 165 67q81 61 142 152h6q39 0 39 -37q0 -32 -41.5 -103.5t-81.5 -123.5t-90 -102.5t-107 -89.5q-128 -89 -246 -89t-167.5 60.5t-49.5 173.5q0 145 175 363q48 59 48 66q0 1 -1 1q-80 0 -243 -100q-173 -106 -244 -208q-41 -161 -49 -307q0 -40 -87 -40 q-218 0 -218 249zM609 883q129 59 222 141q93 84 93 145q0 30 -11.5 55.5t-30 25.5t-47.5 -27t-65 -75q-76 -100 -161 -265z" />
<glyph unicode="i" horiz-adv-x="670" d="M49 226.5q0 65.5 28.5 138.5t73 145.5t99.5 140t109 119.5q119 113 175 113q24 0 53.5 -20.5t37.5 -30.5q-151 -162 -191 -313q-13 -46 -13 -89.5t33 -78t82 -34.5t91.5 18.5t83.5 48.5q81 61 142 152h6q39 0 39 -37q0 -33 -41.5 -104t-82.5 -122.5t-93.5 -101.5 t-114.5 -89q-139 -88 -286 -88q-155 0 -210 122q-21 45 -21 110.5zM508 1179q0 49 17.5 83t50.5 58q71 52 170.5 52t145 -41t45.5 -94t-28 -83t-69 -50.5t-88.5 -31t-82.5 -10.5t-63 8.5t-50 24.5q-48 35 -48 84z" />
<glyph unicode="j" horiz-adv-x="519" d="M-325 -375q78 62 399 701q181 361 263 506q34 61 88 61q31 0 71 -21q-147 -291 -246 -614q195 34 366 182q53 46 86 96h6q39 0 39 -37q0 -16 -24.5 -75t-84.5 -136t-134 -134q-146 -113 -325 -145q-32 -122 -58 -216.5t-57.5 -159.5t-75 -99t-97.5 -34t-87 12t-59 30 q-52 37 -70 83zM339 1178.5q0 49.5 16 83.5t47 58q65 52 184 52q114 0 150 -92q11 -26 11 -58.5t-26 -62.5t-65 -51.5t-84.5 -33.5t-80.5 -12t-61.5 8.5t-47.5 24.5q-43 34 -43 83.5z" />
<glyph unicode="k" horiz-adv-x="1024" d="M50 249q0 218 224 544q127 184 240.5 302t177.5 173q139 120 196 120q40 0 76 -36q-192 -188 -347 -447q-57 -95 -105 -201q171 131 352 172q57 13 107 13q96 0 96 -88q0 -83 -103 -195q-89 -96 -198 -156q22 -64 51 -98.5t75.5 -34.5t89 18.5t83.5 48.5q81 61 142 152h6 q39 0 39 -37q0 -32 -41.5 -103.5t-81.5 -123.5t-90 -102.5t-107 -89.5q-128 -89 -251 -89q-198 0 -209 355q-1 49 -2 90q122 46 214.5 104t130.5 88q86 70 86 119q0 22 -24 22t-56 -10.5t-72 -29t-84.5 -44.5t-87.5 -57q-97 -72 -149 -142q-69 -222 -73 -446 q0 -40 -67.5 -40t-113 13.5t-72.5 43.5q-52 56 -52 192z" />
<glyph unicode="l" horiz-adv-x="810" d="M50 380.5q0 86.5 26 174.5t70 174.5t102.5 169.5t124 156t133.5 134.5t132 106.5q137 94 216 94q111 0 111 -187q0 -247 -300 -522q-114 -105 -240 -181q13 -154 113 -176q32 -7 75.5 -7t94 11.5t100.5 37.5q111 57 185 170h6q39 0 39 -37q0 -16 -21.5 -67t-79.5 -132.5 t-139 -147.5q-186 -152 -413 -152q-262 0 -317 224q-18 70 -18 156.5zM425 621q168 105 283 252q117 149 117 263q0 57 -24 82q-8 9 -28 9t-56 -25.5t-74 -69.5t-74.5 -103.5t-66.5 -126.5q-66 -151 -77 -281z" />
<glyph unicode="m" horiz-adv-x="1747" d="M50 259q0 170 144 367q133 183 277 253q24 11 43.5 11t32.5 -1q33 -3 49 -25q-60 -124 -105 -250q120 111 293 191q180 83 325 83q66 0 66 -80q0 -55 -28 -145q167 153 369 207q68 18 123 18t75 -15.5t23 -42t-7.5 -62t-28.5 -75.5t-40 -82t-41 -81q-45 -94 -45 -138 q0 -82 89 -82q106 0 208 143q30 41 58 83q26 2 35.5 -10t9.5 -26.5t-12.5 -45.5t-37 -80t-58.5 -101t-78 -102.5t-99 -90.5q-123 -87 -271 -87q-159 0 -214 115q-18 37 -18 91t21.5 115t52.5 117.5t65.5 105.5t60.5 85t37 57t-5 21q-70 0 -179 -86q-107 -82 -178 -186 q-103 -271 -103 -361q0 -18 1.5 -31t-5.5 -20.5t-19 -11.5q-28 -11 -61 -11q-23 0 -51 6q-64 14 -100 39q-79 56 -79 183q0 173 187 413q51 66 51 72q0 1 -1 1q-77 0 -228 -97q-157 -101 -226 -205q-45 -180 -49 -365q0 -40 -67 -40q-98 0 -172 60q-90 72 -90 199z" />
<glyph unicode="n" horiz-adv-x="1182" d="M50 242q0 65 19 129.5t51 127.5t74 122t89 109q99 106 188 149q24 11 43.5 11t32.5 -1q33 -3 49 -25q-61 -129 -100 -236q178 175 414 239q77 21 134.5 21t66.5 -21.5t9 -39.5t-5 -48.5t-26 -84.5t-43 -109q-56 -140 -56 -191q0 -88 63 -88q108 0 238 142q38 41 69 88h6 q39 0 39 -37q0 -32 -41 -105.5t-78.5 -127t-84.5 -104.5t-103 -92q-122 -89 -238 -89t-176 61t-60 178q0 173 180 414q49 65 49 72q0 1 -1 1q-76 0 -214 -96q-137 -96 -209 -204q-46 -187 -50 -369q0 -40 -67 -40q-166 0 -236 132q-26 47 -26 112z" />
<glyph unicode="o" horiz-adv-x="1040" d="M38 270q0 172 137 329q133 152 323 213q-1 6 -1 12q0 37 34 62q28 21 92.5 21t124.5 -12t121 -53q132 -87 132 -234q0 -159 -79 -302q172 37 301 230h6q39 0 39 -37q0 -16 -10 -39q-136 -323 -544 -428q-146 -38 -332 -38l-5 1l-20 -1q-158 0 -241 78q-78 73 -78 198z M360 433q0 -116 97 -116q82 0 165 99q87 103 87 209q0 108 -104 143q-179 -50 -229 -224q-16 -53 -16 -111z" />
<glyph unicode="p" horiz-adv-x="1136" d="M-177 -266.5q0 57.5 18.5 126t51 150t76.5 172t94 180.5t104.5 174t108.5 154q144 187 228 198q12 2 21 2t22 -1q33 -3 49 -25q-17 -37 -40.5 -86.5t-49.5 -109.5q196 150 416 202q72 18 137 18q88 0 88 -54q0 -27 -21 -66q-30 -58 -82 -128.5t-78 -109.5 q-62 -92 -62 -138q0 -82 89 -82q78 0 176 70q89 64 150 156q26 2 35.5 -10t9.5 -26.5t-13 -45.5t-41.5 -80t-69 -101t-92.5 -102.5t-114 -90.5q-137 -87 -286 -87q-159 0 -214 115q-18 37 -18 91t30.5 115t73.5 117.5t90 105.5t79.5 85t41.5 57t-24 21t-84.5 -21.5 t-107.5 -56.5q-126 -78 -206 -175q-287 -672 -290 -906q0 -40 -67 -40q-155 0 -209 128q-20 47 -20 104.5z" />
<glyph unicode="q" horiz-adv-x="1099" d="M38 270q0 153 120 297q116 140 304 228q195 91 403 91q115 0 140 -49q50 50 70 53.5t29 3.5t22 -2q35 -5 52 -28q-87 -118 -222 -418q-41 -93 -80 -191q171 31 326 183q47 47 80 98h6q39 0 39 -37q0 -16 -23.5 -72.5t-80.5 -130t-127 -130.5q-140 -112 -310 -150 q-108 -314 -112 -475q0 -40 -67 -40q-110 0 -166.5 64t-56.5 174q0 118 104 335q-97 -74 -205 -74q-106 0 -175 75q-70 76 -70 195zM360 433q0 -116 97 -116q112 0 305 239q50 62 97 115q54 69 103 123h-9q-253 0 -425 -110q-80 -50 -124 -116t-44 -135z" />
<glyph unicode="r" horiz-adv-x="855" d="M-24 337q178 125 250 321q-105 48 -105 136q0 54 71 138q67 82 99 82q98 0 149 -50q20 -19 20 -50.5t-34 -105.5q154 -75 388 -88q-7 -69 -58 -112q-14 -13 -28 -13q-71 -64 -100 -139q-9 -24 -9 -46q0 -93 111 -93q75 0 166 67q81 61 142 152h6q39 0 39 -37 q0 -34 -41.5 -104t-80.5 -121t-87 -100t-102 -88q-121 -86 -237 -86q-197 0 -264 122q-23 41 -23 95.5t22.5 107.5t61.5 103q80 104 203 172q-120 6 -204 25q-103 -179 -202 -319q-13 -21 -59 -11q-82 18 -94 42z" />
<glyph unicode="s" horiz-adv-x="1003" d="M37 373q0 68 103 153q29 24 58 42q100 150 284.5 260t345.5 110q58 0 80 -32q11 -15 11 -33q0 -22 -16 -47q-22 2 -44 2q-32 0 -63 -4v-35t7 -75t17 -110q28 -170 28 -230t-8 -98q151 38 277 174q38 41 68 86q29 2 37 -10.5t8 -26.5t-23 -68t-87.5 -136t-160.5 -148 q-217 -149 -522 -151q-28 -2 -81 -2t-117 29.5t-109 80.5q-93 105 -93 269zM294 561q35 -144 106 -200q22 -17 49 -17t53 21t47.5 56t38 81t29.5 96q22 84 44 199q-169 -52 -299 -165q-39 -35 -68 -71z" />
<glyph unicode="t" horiz-adv-x="827" d="M77 270q0 189 251 524q-25 8 -46 14t-34 10.5t-16 14.5t-2 23q4 30 14 48l151 -25q177 215 305 295q39 24 55 24t28.5 -4.5t25.5 -11.5q28 -15 44 -35q-135 -132 -253 -303q229 -40 280 -43q-27 -107 -62 -107q-86 0 -283 47q-99 -165 -99 -274q0 -150 202 -150 q226 0 372 219h6q39 0 39 -37q0 -35 -42 -104.5t-84 -120.5t-97 -100.5t-122 -88.5q-146 -86 -314 -86q-319 0 -319 271z" />
<glyph unicode="u" horiz-adv-x="1177" d="M38 270q0 141 96 296q80 129 204 228q114 90 184 90q38 0 86 -60q-98 -69 -169 -176q-79 -119 -79 -215q0 -116 97 -116q96 0 151 33q39 156 175 322q135 165 247 207q8 3 17 3q33 0 81 -37q15 -11 23 -19q-85 -73 -138 -198q-45 -106 -45 -191q0 -120 85 -120 q74 0 165 67q81 61 142 152h6q39 0 39 -37q0 -34 -41.5 -104t-80.5 -121t-87 -100t-102 -88q-121 -86 -236 -86q-174 0 -232 124q-110 -82 -232 -113q-42 -11 -93.5 -11t-102 18.5t-86.5 53.5q-74 72 -74 198z" />
<glyph unicode="v" horiz-adv-x="1237" d="M87 356q0 30 33 84t86.5 132t108.5 140q122 141 208 141q74 0 74 -148q0 -87 -20.5 -202.5t-27.5 -158.5q-9 -50 -9 -74q0 -20 7 -20q79 0 222 121q-9 36 -9 65t4 58.5t11 63.5t15 70t17 68q20 71 30 89.5t29 41t45 43.5q60 48 100 48t59 -20.5t31 -53.5 q24 -68 24 -159.5t-72 -207.5q72 -129 123 -129q82 0 185 113q31 34 58 75h6q39 0 39 -37q0 -58 -97 -191q-94 -128 -192 -171q-33 -15 -64 -15q-166 0 -268 111q-206 -186 -391 -249q-61 -20 -110 -20q-149 0 -149 118q0 53 14 138q23 149 23 176v33q-10 0 -49 -51.5 t-49 -66.5q-30 -2 -41 27q-4 9 -4 18z" />
<glyph unicode="w" horiz-adv-x="1673" d="M104 303q0 139 118 315q102 153 222 242q35 26 65 26l1 1q30 0 69 -26q-105 -129 -133 -335q-8 -53 -8 -92q0 -117 54 -117q41 0 107 36.5t137 101.5q16 164 62 301q14 41 26.5 53.5t31 24.5t38.5 22q48 25 69 25t35 -11.5t25 -28.5q24 -37 24 -71q0 -86 -79 -227 q19 -154 74 -209q17 -17 42 -17q54 0 148 94q-1 7 -1 13v15q0 90 15 181q21 126 31.5 146.5t27.5 44t40 45.5q55 51 94 51t54.5 -17t24.5 -46q14 -49 14 -149.5t-54 -225.5q69 -121 135 -121q82 0 185 113q31 34 58 75h6q39 0 39 -37q0 -58 -97 -191q-94 -128 -192 -171 q-33 -15 -64 -15q-142 0 -230 86q-132 -162 -272 -214q-47 -17 -93 -17t-81 23t-60 61q-47 69 -67 189q-263 -273 -447 -273q-87 0 -144 110q-50 99 -50 216z" />
<glyph unicode="x" horiz-adv-x="1199" d="M65 220q0 84 13 142t31 100q51 120 116 148q28 13 63 17q-1 -19 -1 -45.5t4.5 -71.5t16.5 -89q29 -100 75 -100q39 0 91.5 41.5t115.5 105.5q-17 100 -40 201.5t-68 195.5q54 24 111 24q39 0 107 -162q19 -47 42 -97q131 139 194 188q133 106 211 106h5q53 -9 72 -86 q9 -37 9 -67q0 -26 -7 -47q-7 -29 -70 -55q-121 -50 -252 -52q-45 -50 -96 -117q106 -183 227 -183q132 0 271 129q43 40 76 90h6q39 0 39 -37q0 -44 -50.5 -124t-94 -131.5t-95 -96t-107.5 -77.5q-123 -70 -240 -70q-130 0 -184 152q-16 46 -28 102q-93 -123 -150 -168 q-107 -85 -201 -85q-108 0 -164 73q-48 62 -48 146z" />
<glyph unicode="y" horiz-adv-x="1059" d="M-123 -227q0 43 29 89q54 86 116 110q116 -78 198 -97q36 -8 76 -8t84.5 24t91.5 67q98 91 186 233q-176 -165 -332 -165q-102 0 -171 62q-74 66 -74 187q0 139 97 292q82 129 200 227q110 91 165 91q35 0 57 -30q-67 -51 -118 -133q-96 -156 -96 -235q0 -165 90 -165 q93 0 221 130q131 133 182 296q8 54 13 123q36 13 63 13q36 0 56 -24q13 -16 13 -52.5t-8.5 -94.5t-27.5 -131q-38 -155 -108 -324q143 39 287 186q44 45 75 92h6q39 0 39 -37q0 -16 -24 -73.5t-78.5 -133t-120.5 -132.5q-135 -116 -299 -148q-193 -354 -403 -466 q-76 -41 -145 -41t-128 20t-106 55q-106 81 -106 193z" />
<glyph unicode="z" horiz-adv-x="918" d="M0 188.5q0 68.5 20.5 131t53.5 112.5q75 113 159 113q31 0 100.5 -37.5t104.5 -55.5q330 197 365 317q-23 6 -57.5 6t-68 -2t-77 -7t-87.5 -12q-95 -17 -157 -36q-15 22 -15 60q0 72 27 79q136 33 257 33q275 0 297 -44q13 -27 13 -67q0 -120 -313 -418 q106 -44 158.5 -44t95 18.5t83.5 48.5q81 61 142 152q27 2 36 -10t9 -26t-13 -46t-41.5 -80.5t-67.5 -99.5t-87 -100t-103 -88q-120 -86 -242.5 -86t-262.5 115q-156 -115 -211 -115q-57 0 -90 64q-28 56 -28 124.5z" />
<glyph unicode="{" horiz-adv-x="911" d="M130 -139q0 91 30.5 178.5t73.5 173.5t88 169q115 207 115 315q0 54 -31 98q10 15 19 30.5t19 27.5q24 26 68 30.5t87.5 37.5t80 83.5t68.5 114t64.5 128.5t68 127t79.5 110q96 108 221 108q46 0 63 -19.5t17 -36.5t-11 -37q-28 5 -42 5q-161 0 -258 -215 q-28 -62 -54 -127.5t-53.5 -131t-62.5 -120.5q-79 -122 -189 -145q27 -38 27 -87.5t-13 -103.5t-36.5 -118.5t-49.5 -134.5t-49.5 -143.5t-35 -140.5t-11.5 -143t30 -156q-60 -51 -146 -76q-29 -9 -51.5 -9t-44.5 14t-40 41q-41 62 -41 153z" />
<glyph unicode="|" horiz-adv-x="1016" d="M194 -121q116 102 462 845q326 698 370 889q82 -27 82 -46q0 -77 -134 -463q-186 -537 -384 -963q-163 -349 -217 -349q-30 0 -76 22q-84 39 -103 65z" />
<glyph unicode="}" horiz-adv-x="1171" d="M80 -176q181 35 311 316q37 80 72 164t72.5 166.5t82.5 153.5q103 158 236 202q-29 33 -29 78.5t20 101t51 115t60 120t50 120.5t21 109.5t-32 118.5q24 18 35.5 18t24 -1t29.5 -21q37 -44 37 -149q0 -76 -38.5 -182.5t-61.5 -165.5q-46 -119 -46 -185q0 -48 31 -66 q24 -49 -24 -91q-12 -10 -21 -14q-106 -38 -183 -221q-34 -81 -63 -177.5t-59 -193.5t-65.5 -188t-84.5 -161q-106 -154 -267 -154q-77 0 -123 78q-33 54 -36 109z" />
<glyph unicode="~" horiz-adv-x="1200" d="M174 540q0 24 47.5 83t92.5 93q100 77 202 77q74 0 123 -26.5t74.5 -44.5t50.5 -34q58 -37 116.5 -37t129.5 78q79 -45 79 -70t-12 -54.5t-33 -59.5t-49.5 -58t-61.5 -49q-73 -48 -130.5 -48t-90.5 13.5t-58.5 34.5t-46.5 44.5t-41 44.5q-47 48 -90 48q-98 0 -225 -123 q-77 64 -77 88z" />
<glyph />
<glyph unicode="&#xa1;" horiz-adv-x="1014" d="M-81 -372q0 67 101 133q46 30 106 62t124.5 72t129.5 91.5t120 120.5q126 156 160 367q10 0 33 3.5t47 5.5q61 7 61 -6q-53 -343 -197 -608q-49 -91 -98 -149.5t-97 -108t-103 -90.5q-129 -96 -234 -96q-53 0 -100 58q-53 65 -53 145zM0 0zM486 776q0 75 116 138 q106 58 196 58q63 0 96.5 -24.5t46.5 -48t13 -58.5t-24 -74t-64 -70q-91 -69 -190 -69t-144.5 41t-45.5 107z" />
<glyph unicode="&#xa2;" horiz-adv-x="1368" d="M289 549q0 124 108 256q155 189 407 285q77 30 150 41q83 201 100 276q82 -27 82 -45q0 -54 -59 -229q103 -16 139 -71q12 -18 12 -36q0 -35 -39 -63q-54 51 -153 55q-87 -243 -223 -557q8 -2 16 -2h16q94 0 201 50q35 -27 35 -48t-17.5 -49t-47.5 -57.5t-69 -57.5 t-83 -51q-95 -50 -174 -58q-212 -443 -275 -443q-59 0 -124 87q73 61 234 375q-110 34 -173 121t-63 221zM636 651q0 -74 48 -126q107 221 209 461q-105 -47 -181 -142q-76 -97 -76 -193z" />
<glyph unicode="&#xa3;" horiz-adv-x="1460" d="M-1 228q0 45 10.5 76.5t31.5 54.5q45 49 107 49t106 -6q127 87 238 271q-143 48 -249 48q-20 0 -40 -1q9 68 26 85q31 31 101 31q60 0 226 -46q38 73 75 146.5t76 141t83.5 125.5t98.5 101q115 93 270 93q122 0 201 -77q80 -79 80 -209q0 -184 -108 -256q-34 -23 -66 -23 t-50 10t-33 26q-27 28 -42 72q60 19 107 74q47 56 47 123.5t-43.5 108.5t-108 41t-105.5 -23t-73 -63t-56 -94t-44.5 -116t-39 -129.5t-38.5 -134.5q213 -53 323 -53q38 0 70 6q1 -12 1 -28t-4.5 -41.5t-18.5 -50.5q-31 -55 -90 -55q-146 0 -332 71q-73 -184 -182 -244 q153 -48 380 -72q62 -6 102 -6t73.5 7t60.5 21q61 29 82 73q70 -19 70 -65q0 -144 -90 -241q-95 -103 -244 -103q-121 0 -214 33t-146 57t-108 46q-128 50 -236 60q-100 -25 -139.5 -25t-63.5 8t-42 23q-40 35 -40 80z" />
<glyph unicode="&#xa4;" horiz-adv-x="1373" d="M189 263q140 99 225 164q-13 39 -13 80q0 90 69 187q-71 98 -95 188q-7 27 -7 41t5.5 23.5t14.5 19.5q20 20 41 32q47 -95 144 -201q121 90 257 90q77 0 130 -36q147 101 195 145q45 -38 45 -58.5t-16 -43t-41 -46.5q-50 -48 -116 -92q8 -30 8 -61q0 -125 -92 -237 q49 -50 100.5 -88.5t86.5 -66.5q-45 -70 -74.5 -91.5t-44 -21.5t-37.5 18t-46.5 44.5t-46.5 57t-42 54.5q-104 -68 -197 -68t-151 36q-173 -168 -193.5 -168t-38 11.5t-31.5 26.5q-32 34 -39 61zM627 594q0 -32 24 -52t61.5 -20t68 15t54.5 38q54 52 54 97q0 87 -83 87 q-68 0 -124 -51q-55 -49 -55 -114z" />
<glyph unicode="&#xa5;" horiz-adv-x="1405" d="M275 1188q0 39 40.5 77t79.5 61q90 52 177.5 52t141.5 -36q123 -84 123 -340q0 -45 -3 -92q267 261 535 442q148 101 189 101q31 0 49.5 -12.5t22.5 -27.5q-357 -281 -611 -588q140 6 228 20q4 -16 4 -34q0 -50 -49 -72q-87 -39 -294 -59q-36 -50 -68 -100q207 7 323 24 q4 -17 4 -35.5t-11 -46t-43 -38.5q-135 -47 -366 -65q-125 -244 -125 -448q-63 -22 -118.5 -22t-98 12.5t-73 42.5t-30.5 78q0 135 117 329q-142 11 -142 113q0 35 13 82q62 -18 247 -25q11 22 29 82h-24q-181 0 -181 103q0 34 13 81q59 -18 234 -25q22 115 22 188.5t-8 124 t-32.5 85t-59.5 34.5t-64.5 -11t-56.5 -28q-56 -35 -90 -78q-44 14 -44 51z" />
<glyph unicode="&#xa6;" horiz-adv-x="1016" d="M200 -123q76 79 285 493q63 124 126 257q69 -24 101 -45.5t32 -34.5t-13 -53t-34.5 -96t-50 -122.5t-60 -134t-63.5 -130.5t-61 -111q-63 -108 -89 -108q-46 0 -141 62q-23 14 -32 23zM739 901q157 318 269 650q14 43 18 62q82 -22 82 -48q0 -69 -110 -391 q-111 -322 -138 -322q-48 0 -121 49z" />
<glyph unicode="&#xa7;" horiz-adv-x="1558" d="M172 421q0 87 12 97.5t23 16.5q25 14 42 18q31 -99 133 -168q105 -72 232 -72q71 0 108 27q66 48 66 91.5t-15 77.5t-38 69t-49.5 69.5t-49.5 69.5q-53 81 -53 139q0 105 112 183q33 23 69 37v11q0 123 146 208q139 81 310 81q104 0 163.5 -25.5t83 -49t23.5 -50t-13 -45 t-32 -32.5q-34 -26 -82 -44q-33 83 -155 119q-37 11 -76.5 11t-79.5 -9t-72 -29q-74 -44 -74 -129q0 -47 89 -138q38 -39 83 -82t83 -89q89 -108 89 -196.5t-50.5 -161.5t-149.5 -110q-25 -128 -150 -218q-131 -94 -311 -94q-186 0 -303 120q-114 119 -114 297zM729 893 q0 -49 89 -131q39 -36 82.5 -77.5t79.5 -91.5q52 25 52 62.5t-26.5 76.5t-64 81t-77.5 86.5t-67 88.5q-68 -38 -68 -95z" />
<glyph unicode="&#xa8;" horiz-adv-x="1200" d="M588 1158.5q0 30.5 17.5 63.5t40.5 62q57 70 77.5 70t43 -11.5t43.5 -28.5q50 -40 50 -68t-14 -57.5t-37 -55t-51.5 -42.5t-52.5 -17t-44 7t-37 19q-36 28 -36 58.5zM964 1182.5q0 32.5 19.5 61t46.5 52.5q62 58 87.5 58t46.5 -12.5t38 -30.5q39 -41 39 -64t-13 -50.5 t-34 -54.5t-48 -47.5t-53 -20.5t-49 10.5t-40 27.5q-40 38 -40 70.5z" />
<glyph unicode="&#xa9;" horiz-adv-x="1557" d="M31 230q0 98 42 191.5t114.5 179.5t170.5 160.5t210 129.5q242 118 477 118q317 0 411 -213q30 -69 30 -164t-34.5 -195.5t-98 -192.5t-152 -171.5t-195.5 -138.5q-230 -126 -488 -126q-212 0 -345 109q-142 116 -142 313zM205 288q0 -162 127 -248q114 -78 298 -78 q175 0 346 98q167 97 271 252q110 162 110 333q0 131 -86 207q-88 79 -244 79q-170 0 -363 -91q-195 -94 -320 -234q-139 -156 -139 -318zM407 312q0 109 83 216q121 155 322 210q62 17 111 17q96 0 149 -45q26 -24 26 -49.5t-28 -49.5q-54 44 -121.5 44t-113 -21t-79.5 -56 q-73 -74 -73 -168q0 -40 24 -67t57 -27t70.5 6.5t73.5 19.5q82 28 118 67q29 -18 29 -40t-21 -50.5t-55.5 -58.5t-78.5 -59t-90 -51q-101 -50 -159.5 -50t-101 14.5t-74.5 41.5q-68 59 -68 156z" />
<glyph unicode="&#xaa;" horiz-adv-x="846" d="M253 1144q0 39 20.5 81t56.5 76t84 61t103 45q113 37 230 37q38 0 59 -23l15 17q14 15 37 15q42 0 75 -5q-4 -9 -15.5 -33t-25.5 -56t-26.5 -66.5t-17.5 -63.5q-10 -67 33 -67q54 0 126 57q35 0 35 -25q0 -19 -42 -62t-82 -72q-97 -70 -173 -70q-87 0 -118 52 q-10 17 -9 38q-96 -90 -201 -90q-114 0 -153 88q-11 27 -11 66zM463 1217.5q0 -53.5 40 -53.5q80 0 200 135q32 36 59 69q-130 -4 -218 -52q-81 -45 -81 -98.5z" />
<glyph unicode="&#xab;" horiz-adv-x="1483" d="M450 434.5q0 26.5 20.5 55.5t54.5 62t78 68t92 68t96 63t90 53q91 48 111 48t32.5 -7t23.5 -17q22 -22 27 -43q-42 -14 -151 -97.5t-148 -117.5q-90 -78 -88.5 -98.5t15 -48t34 -57t45 -58.5t46.5 -52q45 -49 62 -60q-4 -25 -47 -62q-79 -68 -101.5 -68t-52.5 18.5 t-62.5 49.5t-64 70.5t-56.5 81t-40.5 82t-15.5 67zM868 452q0 21 34 56t86 75t114 80t118 73q128 73 147 73t30.5 -7t20.5 -17q20 -21 25 -43q-115 -67 -210.5 -145.5t-116.5 -99.5t-20 -32t11.5 -29t27 -37.5t36 -39t37.5 -36t32.5 -29t20.5 -18.5q-36 -58 -119 -106 q-22 -13 -37 -13t-39.5 16.5t-51 42.5t-53 58.5t-47 65.5t-33.5 62t-13 50z" />
<glyph unicode="&#xac;" horiz-adv-x="1436" d="M293 584q0 38 13 85q93 -26 355 -26t505 11q0 -144 -128 -398q-53 -104 -75 -129q-37 -42 -102 -42q-37 0 -66 9q59 137 94 244.5t41 138.5q-140 -14 -456 -14q-181 0 -181 121z" />
<glyph unicode="&#xad;" horiz-adv-x="1707" />
<glyph unicode="&#xae;" horiz-adv-x="1557" d="M23 230q0 98 42 191.5t114.5 179.5t170.5 160.5t210 129.5q242 118 477 118q317 0 411 -213q30 -69 30 -164t-34.5 -195.5t-98 -192.5t-152 -171.5t-195.5 -138.5q-230 -126 -488 -126q-212 0 -345 109q-142 116 -142 313zM197 288q0 -162 127 -248q114 -78 298 -78 q175 0 346 98q167 97 271 252q110 162 110 333q0 131 -86 207q-88 79 -244 79q-170 0 -363 -91q-195 -94 -320 -234q-139 -156 -139 -318zM348 281q0 75 24.5 138t66 120.5t96 107.5t115.5 87q130 78 225.5 78t141 -35t45.5 -89q0 -136 -221 -254q34 -102 105 -102 q58 0 128 60q18 16 29 31q27 -12 27 -34.5t-15.5 -50t-42 -58t-61 -61.5t-73.5 -55q-87 -56 -142.5 -56t-82.5 29q-62 67 -62 224q0 33 3 67q126 59 171 91q95 68 95 133t-67 65q-104 0 -193 -203q-82 -189 -85 -365q0 -27 -37.5 -27t-69 9t-58.5 29q-62 46 -62 121z" />
<glyph unicode="&#xaf;" horiz-adv-x="1200" d="M367 1283q0 33 15 77q117 -29 377 -29l94 1q164 5 258 20q7 -11 7 -27.5t-3 -30.5q-8 -39 -38.5 -53t-86.5 -25.5t-127 -19.5q-138 -17 -317 -17t-179 104z" />
<glyph unicode="&#xb0;" horiz-adv-x="796" d="M308 1114.5q0 67.5 29.5 123t78.5 100.5q112 103 248 103q122 0 158 -97q10 -28 10 -76t-29 -108t-76 -105.5t-108 -73t-111 -27.5t-83.5 11.5t-59.5 33.5q-57 48 -57 115.5zM469 1195q0 -77 80 -77q53 0 99 46q45 45 45 91q0 65 -69 65q-63 0 -109 -42t-46 -83z" />
<glyph unicode="&#xb1;" horiz-adv-x="1436" d="M176 102q0 38 13 85q100 -28 407 -28t466 26q4 -15 4 -25.5t-1 -23.5t-8 -32q-15 -39 -45 -53q-118 -51 -475 -66q-96 -4 -180 -4q-181 0 -181 121zM353 744q0 38 13 85q86 -23 363 -28q57 237 57 293h31t45 -2t46 -12q38 -20 38 -87t-36 -190q209 4 329 24 q4 -15 4 -25.5t-1 -23.5t-8 -32q-15 -39 -45 -53q-92 -40 -333 -58q-50 -142 -84 -204t-46 -75.5t-32.5 -22.5t-41.5 -13q-48 -7 -64 4q37 85 95 301q-39 -2 -77 -2h-72q-181 0 -181 121z" />
<glyph unicode="&#xb2;" horiz-adv-x="1060" d="M267 867q0 57 23.5 83t67 53t99 56t119 59.5t126 63.5t120.5 67.5t102 70.5q97 81 97 153q0 82 -123 82q-88 0 -141 -27q-95 -48 -95 -89.5t44 -63.5q-33 -46 -66.5 -46t-58 6t-45.5 17q-47 27 -47 62.5t22.5 68t60.5 60.5t87.5 51.5t102.5 39.5q114 36 220 36t169.5 -45 t63.5 -131q0 -164 -291 -342q-128 -77 -291 -141q43 2 78.5 2t64.5 -1t61.5 -3t65.5 -6q144 -17 168 -59q37 -64 -36 -160q-75 25 -164 25t-157 -4q-168 -10 -336 -62q-14 -4 -25.5 -4t-27.5 6q-33 13 -45.5 55t-12.5 67z" />
<glyph unicode="&#xb3;" horiz-adv-x="1021" d="M264 845.5q0 40.5 4 61.5q30 -2 69 -2t101 5.5t130.5 21t124.5 40.5q154 67 154 163q0 19 -6 38q-103 -45 -163 -45q-29 0 -51 58q-18 48 -18 79q129 16 258 84q136 71 136 141q0 34 -34 53t-83.5 19t-101 -17t-91.5 -43q-92 -58 -80 -108q-11 -14 -43.5 -24.5 t-40.5 -10.5t-20.5 8t-23.5 20q-27 28 -27 56.5t24.5 56t65 53t91.5 47t104 37.5q111 34 207 34t158.5 -43.5t62.5 -118.5q0 -125 -188 -255q79 -68 79 -168q0 -94 -61.5 -171.5t-143.5 -126.5q-180 -110 -448 -110q-82 0 -122 80q-23 47 -23 87.5z" />
<glyph unicode="&#xb4;" horiz-adv-x="1200" d="M448 1102q66 46 149.5 124t118.5 115q80 84 94 127q59 -13 128 -82q17 -17 17 -35.5t-26 -51.5t-66.5 -68t-90 -69.5t-97 -61.5t-87.5 -43.5t-53 -16.5t-25 6.5t-25 16.5q-31 24 -37 39z" />
<glyph unicode="&#xb5;" horiz-adv-x="1494" d="M5 -213q0 293 108 562q96 238 243 389q141 146 255 146q29 0 77 -60q-98 -69 -169 -176q-79 -119 -79 -215q0 -116 97 -116q96 0 151 33q39 156 175 322q135 165 247 207q36 13 98 -34q15 -11 23 -19q-85 -73 -138 -198q-45 -106 -45 -191q0 -120 85 -120q74 0 165 67 q81 61 142 152q45 3 45 -37q0 -36 -41.5 -105t-80.5 -120t-87 -100t-102 -88q-121 -86 -236 -86q-174 0 -232 124q-110 -82 -232 -113q-42 -11 -82 -11t-72 7q-18 -189 -18 -378q-44 -6 -84 -6q-213 0 -213 164z" />
<glyph unicode="&#xb6;" horiz-adv-x="1740" d="M295 797q0 159 84 325q88 174 235 284q163 122 358 122q105 0 246 -37q26 75 38 122q82 -27 82 -46q0 -31 -18 -103q122 -34 149 -41q45 152 53 190q82 -27 82 -46q0 -36 -30 -171q186 -42 326 -42q41 0 84 3q-4 -75 -29.5 -105t-54.5 -30q-151 0 -353 61 q-167 -662 -369 -1205q-83 -222 -125.5 -288.5t-59.5 -66.5t-40.5 7.5t-46.5 19.5q-53 26 -72 51q128 112 461 1087q79 230 141 430q-124 42 -142 47q-160 -576 -426 -1201q-98 -231 -146.5 -301.5t-68.5 -70.5q-30 0 -76 22q-84 39 -103 65q95 84 375 704 q-125 -108 -265 -108q-143 0 -220 93q-69 86 -69 229zM536 1030q0 -179 156 -179q107 0 242 150q116 129 235 354l15 41q-112 27 -191.5 27t-143 -17.5t-114 -47t-88 -69t-61.5 -83.5q-50 -87 -50 -176z" />
<glyph unicode="&#xb7;" horiz-adv-x="857" d="M375 510q0 32 24.5 67t60.5 63q80 65 138 65q42 0 83 -30q76 -57 76 -108q0 -62 -76 -127.5t-147 -65.5q-63 0 -97.5 27.5t-48 52t-13.5 56.5z" />
<glyph unicode="&#xb8;" horiz-adv-x="1200" d="M333 -349.5q0 5.5 5.5 18t15.5 27.5q25 35 45 42q46 -33 88 -29q77 7 77 51q0 39 -44 102q-9 12 -9 29t24.5 43t58.5 50q54 39 133 78l144 -18q-78 -39 -123 -76q-67 -55 -67 -66.5t19 -26.5t42 -38q61 -61 61 -123t-26 -98.5t-66 -59.5q-79 -47 -178 -47q-65 0 -108 27 q-75 48 -91 106q-1 3 -1 8.5z" />
<glyph unicode="&#xb9;" horiz-adv-x="784" d="M304 896q0 108 222 329q60 59 114 112q135 131 155 168q-91 -65 -285 -143q-73 -30 -91 -30t-30 10.5t-22 27.5q-22 35 -28 75q420 131 571 228q39 -11 68 -60q7 -13 7 -32.5t-28 -66t-70.5 -107t-92.5 -135t-93 -158.5q-100 -198 -104 -373q-27 -3 -53.5 -3t-65 3.5 t-80.5 21.5q-94 40 -94 133z" />
<glyph unicode="&#xba;" horiz-adv-x="764" d="M283 1125.5q0 54.5 25 98.5t67 82q89 80 210 111q13 45 36.5 49t50 4t65.5 -8.5t78 -31.5q86 -51 86 -122t-33 -129t-91 -100.5t-135.5 -67t-147 -24.5t-105.5 12t-59 32q-47 40 -47 94.5zM496 1217q0 -52 42 -52q65 0 116 49q49 47 49 93q0 42 -45 57q-76 -17 -119 -56 t-43 -91z" />
<glyph unicode="&#xbb;" horiz-adv-x="1483" d="M314 292q139 89 231 161q139 109 139 122t-18.5 36.5t-43.5 49.5q-53 53 -98 91q44 56 87 56q37 0 157 -100q123 -103 123 -150q0 -49 -197 -226q-107 -95 -163.5 -133.5t-68.5 -38.5q-22 0 -66 38q-80 71 -82 94zM705 200q93 54 295 256q81 81 81 96.5t-13 34t-32.5 39 t-43.5 42.5t-47 41.5t-41.5 34.5t-26.5 23q41 56 79 56q53 0 196 -110q149 -114 149 -175q0 -67 -181 -270q-99 -112 -156.5 -156t-77.5 -44t-49.5 15t-56.5 36q-64 49 -75 81z" />
<glyph unicode="&#xbc;" horiz-adv-x="2066" d="M40 -210q176 126 638 586q810 806 1152 1304q36 -12 52 -30t16 -37t-42.5 -93.5t-116 -178.5t-172.5 -231t-212.5 -264.5t-235.5 -278.5t-242 -272t-232.5 -246t-205.5 -200q-201 -184 -263 -184q-31 0 -65 33q-59 57 -71 92zM413 896q0 108 223 329q59 59 114 112 q134 131 154 168q-91 -65 -284 -143q-74 -30 -92 -30t-30 10.5t-22 27.5q-22 35 -28 75q420 131 571 228q39 -11 67 -60q8 -13 8 -32.5t-28 -66t-70.5 -107t-92.5 -135t-93 -158.5q-100 -198 -104 -373q-27 -3 -53.5 -3t-65 3.5t-80.5 21.5q-94 40 -94 133zM964 54 q290 214 725 426q72 35 130 59q22 -4 49 -24q48 -36 48 -58.5t-16.5 -59.5t-43.5 -85t-61 -106.5t-70 -124.5q152 -4 207 -45q19 -14 19 -29q0 -31 -35 -75q-51 14 -203 14l-56 -1q-88 -197 -107 -358q-28 -2 -54 -2q-213 0 -213 130q0 80 83 200q-91 -15 -153 -28.5 t-85 -13.5t-49.5 18.5t-50.5 46.5q-56 64 -64 116zM1178 47q10 1 39 3.5t71 6.5q102 10 199 15q40 48 81 94.5t76 88.5q83 100 101 140q-116 -46 -233.5 -122t-167.5 -109q-50 -35 -166 -117z" />
<glyph unicode="&#xbd;" horiz-adv-x="2042" d="M40 0zM40 -210q176 126 638 586q810 806 1152 1304q36 -12 52 -30t16 -37t-42.5 -93.5t-116 -178.5t-172.5 -231t-212.5 -264.5t-235.5 -278.5t-242 -272t-232.5 -246t-205.5 -200q-201 -184 -263 -184q-31 0 -65 33q-59 57 -71 92zM413 896q0 108 222 329q60 59 114 112 q135 131 155 168q-91 -65 -285 -143q-73 -30 -91 -30t-30 10.5t-22 27.5q-22 35 -28 75q420 131 571 228q39 -11 68 -60q7 -13 7 -32.5t-28 -66t-70.5 -107t-92.5 -135t-93 -158.5q-100 -198 -104 -373q-27 -3 -53.5 -3t-65 3.5t-80.5 21.5q-94 40 -94 133zM998 -232 q0 57 23.5 83t67 53t99 56t119 59.5t126 63.5t120.5 67.5t102 70.5q97 81 97 153q0 82 -123 82q-88 0 -141 -27q-95 -48 -95 -89.5t44 -63.5q-33 -46 -66.5 -46t-58 6t-45.5 17q-47 27 -47 62.5t22.5 68t60.5 60.5t87.5 51.5t102.5 39.5q114 36 220 36t169.5 -45t63.5 -131 q0 -164 -291 -342q-128 -77 -291 -141q43 2 78.5 2t64.5 -1t61.5 -3t65.5 -6q144 -17 168 -59q37 -64 -36 -160q-75 25 -164 25t-157 -4q-168 -10 -336 -62q-14 -4 -25.5 -4t-27.5 6q-33 13 -45.5 55t-12.5 67z" />
<glyph unicode="&#xbe;" horiz-adv-x="2166" d="M140 -210q176 126 638 586q810 806 1152 1304q36 -12 52 -30t16 -37t-42.5 -93.5t-116 -178.5t-172.5 -231t-212.5 -264.5t-235.5 -278.5t-242 -272t-232.5 -246t-205.5 -200q-201 -184 -263 -184q-31 0 -65 33q-59 57 -71 92zM244 845.5q0 40.5 4 61.5q30 -2 69 -2 t101 5.5t130.5 21t124.5 40.5q154 67 154 163q0 19 -6 38q-103 -45 -163 -45q-29 0 -51 58q-18 48 -18 79q128 16 258 84q136 71 136 141q0 34 -34 53t-83.5 19t-101 -17t-91.5 -43q-92 -58 -80 -108q-11 -14 -43.5 -24.5t-40.5 -10.5t-20.5 8t-24.5 20q-26 28 -26 56.5 t24.5 56t65 53t91.5 47t103 37.5q112 34 208 34t158.5 -43.5t62.5 -118.5q0 -125 -188 -255q79 -68 79 -168q0 -94 -61.5 -171.5t-142.5 -126.5q-181 -110 -449 -110q-82 0 -122 80q-23 47 -23 87.5zM1064 54q290 214 725 426q72 35 130 59q22 -4 49 -24q48 -36 48 -58.5 t-16.5 -59.5t-43.5 -85t-61 -106.5t-70 -124.5q152 -4 207 -45q19 -14 19 -29q0 -31 -35 -75q-51 14 -203 14l-56 -1q-88 -197 -107 -358q-28 -2 -54 -2q-213 0 -213 130q0 80 83 200q-91 -15 -153 -28.5t-85 -13.5t-49.5 18.5t-50.5 46.5q-56 64 -64 116zM1278 47 q10 1 39 3.5t71 6.5q102 10 199 15q40 48 81 94.5t76 88.5q83 100 101 140q-111 -43 -231 -120.5t-170 -110.5q-50 -35 -166 -117z" />
<glyph unicode="&#xbf;" horiz-adv-x="1130" d="M-110 -459.5q0 99.5 39 172t102 132.5t144 109t166 92.5t166 83.5t144 80q141 90 141 178q0 83 -91.5 83t-169.5 -55q-27 4 -25 34q2 20 41 43t69 34q63 23 115 23t90 -12.5t65 -35.5q57 -47 57 -109t-28.5 -108.5t-75.5 -90.5t-107 -86t-123 -81.5t-123 -78t-107 -74.5 q-104 -81 -104 -140t34.5 -88t90.5 -29t112.5 19.5t99 47t67.5 57.5t25 49.5t-6 28.5t-17 11q-15 4 -57 -6q-27 48 16 70q32 16 91 16q114 0 149 -96q10 -29 10 -55t-4 -61.5t-33 -93t-80 -112.5t-125 -98q-165 -95 -386 -95q-171 0 -274 73q-98 69 -98 168.5zM602 778 q0 57 67 115t185 83q33 7 61.5 7t56.5 -8.5t50 -24.5q48 -35 48 -84t-24 -88t-64 -70q-91 -69 -190 -69t-144.5 41t-45.5 98z" />
<glyph unicode="&#xc0;" horiz-adv-x="2139" d="M32 0zM32 739q0 150 210 241q195 85 475 85q125 0 274 -32q375 312 769 457q190 70 336 70q68 0 101.5 -30.5t33.5 -77t-24.5 -115.5t-61.5 -153.5t-79.5 -181.5t-79.5 -198q-86 -235 -86 -398q0 -119 105 -119q30 0 66 15q19 -13 31 -34.5t12 -37.5t-12.5 -46 t-35.5 -60.5t-55.5 -58.5t-71.5 -50q-146 -83 -316 -25q-141 47 -201 194q-30 76 -30 173t30 182.5t78.5 168t111 159.5t128 147.5t128 132.5t110.5 115q109 117 109 161q0 23 -42 23q-182 0 -415 -136q-225 -132 -422 -341q159 -57 193 -103q39 -52 -13 -104 q-149 72 -267 109q-255 -308 -301 -597q-7 -47 -7 -94.5t9 -95.5q-100 -74 -206 -110q-37 -13 -60 -13t-47.5 12t-44.5 37q-48 56 -48 149t33.5 188t92.5 192q111 183 320 381q-82 5 -163 5t-169 -21q-186 -44 -222 -168q-7 -22 -7 -57.5t24 -91.5q-20 -37 -93 -30 q-76 7 -119 41q-81 64 -81 141zM1787 1746q0 14 4.5 29.5t11.5 30.5q16 36 34 46q85 -50 297 -118q88 -27 125 -29q-6 -71 -47 -71q-107 0 -204.5 21.5t-135 34.5t-61.5 27.5t-24 28.5z" />
<glyph unicode="&#xc1;" horiz-adv-x="2139" d="M32 0zM32 739q0 150 210 241q195 85 475 85q125 0 274 -32q375 312 769 457q190 70 336 70q68 0 101.5 -30.5t33.5 -77t-24.5 -115.5t-61.5 -153.5t-79.5 -181.5t-79.5 -198q-86 -235 -86 -398q0 -119 105 -119q30 0 66 15q19 -13 31 -34.5t12 -37.5t-12.5 -46 t-35.5 -60.5t-55.5 -58.5t-71.5 -50q-146 -83 -316 -25q-141 47 -201 194q-30 76 -30 173t30 182.5t78.5 168t111 159.5t128 147.5t128 132.5t110.5 115q109 117 109 161q0 23 -42 23q-182 0 -415 -136q-225 -132 -422 -341q159 -57 193 -103q39 -52 -13 -104 q-149 72 -267 109q-255 -308 -301 -597q-7 -47 -7 -94.5t9 -95.5q-100 -74 -206 -110q-37 -13 -60 -13t-47.5 12t-44.5 37q-48 56 -48 149t33.5 188t92.5 192q111 183 320 381q-82 5 -163 5t-169 -21q-186 -44 -222 -168q-7 -22 -7 -57.5t24 -91.5q-20 -37 -93 -30 q-76 7 -119 41q-81 64 -81 141zM1829 1705q74 4 306 87q91 33 136 60q28 -15 45 -76q5 -16 5 -30t-25.5 -28.5t-65.5 -27.5t-90 -23.5t-100 -17.5q-106 -15 -164 -15q-41 0 -47 71z" />
<glyph unicode="&#xc2;" horiz-adv-x="2139" d="M32 0zM32 739q0 150 210 241q195 85 475 85q125 0 274 -32q375 312 769 457q190 70 336 70q68 0 101.5 -30.5t33.5 -77t-24.5 -115.5t-61.5 -153.5t-79.5 -181.5t-79.5 -198q-86 -235 -86 -398q0 -119 105 -119q30 0 66 15q19 -13 31 -34.5t12 -37.5t-12.5 -46 t-35.5 -60.5t-55.5 -58.5t-71.5 -50q-146 -83 -316 -25q-141 47 -201 194q-30 76 -30 173t30 182.5t78.5 168t111 159.5t128 147.5t128 132.5t110.5 115q109 117 109 161q0 23 -42 23q-182 0 -415 -136q-225 -132 -422 -341q159 -57 193 -103q39 -52 -13 -104 q-149 72 -267 109q-255 -308 -301 -597q-7 -47 -7 -94.5t9 -95.5q-100 -74 -206 -110q-37 -13 -60 -13t-47.5 12t-44.5 37q-48 56 -48 149t33.5 188t92.5 192q111 183 320 381q-82 5 -163 5t-169 -21q-186 -44 -222 -168q-7 -22 -7 -57.5t24 -91.5q-20 -37 -93 -30 q-76 7 -119 41q-81 64 -81 141zM1651 1656q38 19 95 43t117 51q151 66 204 101q61 -9 73 -18q48 -55 137.5 -114t113.5 -73q-8 -17 -28.5 -32.5t-39 -15.5t-54.5 11.5t-78 28.5q-102 41 -150 72q-105 -60 -280 -98q-43 -10 -56.5 -10t-20.5 5.5t-14 13.5q-11 15 -19 35z" />
<glyph unicode="&#xc3;" horiz-adv-x="2139" d="M32 0zM32 739q0 150 210 241q195 85 475 85q125 0 274 -32q375 312 769 457q190 70 336 70q68 0 101.5 -30.5t33.5 -77t-24.5 -115.5t-61.5 -153.5t-79.5 -181.5t-79.5 -198q-86 -235 -86 -398q0 -119 105 -119q30 0 66 15q19 -13 31 -34.5t12 -37.5t-12.5 -46 t-35.5 -60.5t-55.5 -58.5t-71.5 -50q-146 -83 -316 -25q-141 47 -201 194q-30 76 -30 173t30 182.5t78.5 168t111 159.5t128 147.5t128 132.5t110.5 115q109 117 109 161q0 23 -42 23q-182 0 -415 -136q-225 -132 -422 -341q159 -57 193 -103q39 -52 -13 -104 q-149 72 -267 109q-255 -308 -301 -597q-7 -47 -7 -94.5t9 -95.5q-100 -74 -206 -110q-37 -13 -60 -13t-47.5 12t-44.5 37q-48 56 -48 149t33.5 188t92.5 192q111 183 320 381q-82 5 -163 5t-169 -21q-186 -44 -222 -168q-7 -22 -7 -57.5t24 -91.5q-20 -37 -93 -30 q-76 7 -119 41q-81 64 -81 141zM1705 1705q0 21 33.5 54t67.5 52q75 41 141 41t107.5 -14t77.5 -31.5t69.5 -31.5t71.5 -14q68 0 151 72q40 -26 40 -45.5t-21.5 -49.5t-52.5 -52q-69 -52 -140.5 -52t-112 16t-76 34.5t-69 34.5t-74.5 16q-73 0 -168 -73q-45 22 -45 43z" />
<glyph unicode="&#xc4;" horiz-adv-x="2139" d="M32 0zM32 739q0 150 210 241q195 85 475 85q125 0 274 -32q375 312 769 457q190 70 336 70q68 0 101.5 -30.5t33.5 -77t-24.5 -115.5t-61.5 -153.5t-79.5 -181.5t-79.5 -198q-86 -235 -86 -398q0 -119 105 -119q30 0 66 15q19 -13 31 -34.5t12 -37.5t-12.5 -46 t-35.5 -60.5t-55.5 -58.5t-71.5 -50q-146 -83 -316 -25q-141 47 -201 194q-30 76 -30 173t30 182.5t78.5 168t111 159.5t128 147.5t128 132.5t110.5 115q109 117 109 161q0 23 -42 23q-182 0 -415 -136q-225 -132 -422 -341q159 -57 193 -103q39 -52 -13 -104 q-149 72 -267 109q-255 -308 -301 -597q-7 -47 -7 -94.5t9 -95.5q-100 -74 -206 -110q-37 -13 -60 -13t-47.5 12t-44.5 37q-48 56 -48 149t33.5 188t92.5 192q111 183 320 381q-82 5 -163 5t-169 -21q-186 -44 -222 -168q-7 -22 -7 -57.5t24 -91.5q-20 -37 -93 -30 q-76 7 -119 41q-81 64 -81 141zM1758 1704.5q0 22.5 19 43.5t44 38q54 36 75.5 36t41.5 -7.5t38 -18.5q44 -29 44 -50.5t-17.5 -40t-42.5 -34.5t-53 -26.5t-45.5 -10.5t-34.5 6.5t-32 17.5q-37 24 -37 46.5zM2181 1718.5q0 25.5 20 42t47 29.5q63 32 88.5 32t44 -8t33.5 -20 q34 -29 34 -56t-37.5 -54t-65 -38.5t-50.5 -11.5t-43 8t-36 22q-35 29 -35 54.5z" />
<glyph unicode="&#xc5;" horiz-adv-x="2139" d="M32 0zM32 739q0 150 210 241q195 85 475 85q125 0 274 -32q375 312 769 457q190 70 336 70q68 0 101.5 -30.5t33.5 -77t-24.5 -115.5t-61.5 -153.5t-79.5 -181.5t-79.5 -198q-86 -235 -86 -398q0 -119 105 -119q30 0 66 15q19 -13 31 -34.5t12 -37.5t-12.5 -46 t-35.5 -60.5t-55.5 -58.5t-71.5 -50q-146 -83 -316 -25q-141 47 -201 194q-30 76 -30 173t30 182.5t78.5 168t111 159.5t128 147.5t128 132.5t110.5 115q109 117 109 161q0 23 -42 23q-182 0 -415 -136q-225 -132 -422 -341q159 -57 193 -103q39 -52 -13 -104 q-149 72 -267 109q-255 -308 -301 -597q-7 -47 -7 -94.5t9 -95.5q-100 -74 -206 -110q-37 -13 -60 -13t-47.5 12t-44.5 37q-48 56 -48 149t33.5 188t92.5 192q111 183 320 381q-82 5 -163 5t-169 -21q-186 -44 -222 -168q-7 -22 -7 -57.5t24 -91.5q-20 -37 -93 -30 q-76 7 -119 41q-81 64 -81 141zM1858 1698q0 26 23.5 54t64.5 50q93 50 213 50q109 0 145 -58q11 -17 11 -45t-23 -58t-62 -51q-81 -45 -203 -45q-112 0 -155 58q-14 19 -14 45zM2011 1719q0 -36 71 -36q73 0 116 45q12 12 12 27.5t-18.5 26t-42.5 10.5t-48 -6.5t-44 -16.5 q-46 -23 -46 -50z" />
<glyph unicode="&#xc6;" horiz-adv-x="2601" d="M32 739q0 150 210 241q195 85 475 85q127 0 258 -28q383 315 765 453q192 70 336 70q64 0 97.5 -27.5t36.5 -71.5q236 103 501 103q175 0 233 -102q20 -34 20 -73t-10.5 -73.5t-29.5 -62.5q-41 -63 -97 -63q-35 0 -83 40q-12 10 -18 17q44 52 44 124q0 83 -112 83 q-125 0 -281 -48q-110 -34 -159 -86q-26 -26 -26 -61t20 -69.5t53.5 -64t78.5 -54.5t94 -45q96 -37 201 -59q-17 -80 -54 -135q-12 -18 -22 -16q-125 28 -219 28t-166 -10q-148 -23 -252 -103q-47 -141 -47 -216t27 -115t66 -62q65 -39 149 -39q192 0 378 136 q23 -16 36 -35.5t13 -38t-22.5 -59.5t-62.5 -85.5t-94.5 -88t-119.5 -78.5q-146 -77 -280.5 -77t-235 36t-169.5 97q-139 126 -139 314q0 212 203 468q105 132 199.5 229t139.5 147q100 113 100 159q0 23 -42 23q-180 0 -412 -134q-221 -128 -420 -337q177 -67 208 -109 q39 -52 -13 -104q-164 78 -283 114q-257 -309 -304 -600q-8 -49 -8 -97t9 -95q-28 -32 -96 -64q-126 -59 -159.5 -59t-58 12t-44.5 37q-48 56 -48 149.5t33.5 188.5t92.5 192q113 186 321 381q-58 4 -141.5 4t-171.5 -21q-186 -44 -222 -168q-7 -22 -7 -57.5t24 -91.5 q-20 -37 -93 -30q-76 7 -119 41q-81 64 -81 141zM2024 970q76 15 155 18q-64 37 -107 85z" />
<glyph unicode="&#xc7;" horiz-adv-x="1361" d="M105 530q0 286 235 560q223 260 540 392q213 90 405 90q195 0 265 -110q25 -38 25 -86t-15 -82.5t-38 -59.5q-48 -52 -91 -52q-40 0 -121 61q-18 14 -24 21q54 65 54 120q0 41 -28.5 59.5t-92.5 18.5t-156 -32.5t-176.5 -88.5t-158 -131.5t-127.5 -162.5 q-116 -187 -116 -365q0 -179 125 -296q145 -136 379 -136q240 0 423 144q74 59 128 142q45 3 45 -37q0 -16 -10 -39q-87 -206 -291 -344q-191 -128 -424 -160q-109 -40 -168 -89q-18 -15 -18 -25t19 -25t42 -38q61 -61 61 -123t-26 -98.5t-66 -59.5q-79 -47 -178 -47 q-65 0 -108 27q-75 48 -91 106q-6 17 13 43q32 46 52 53q46 -33 88 -29q77 7 77 51q0 39 -45 102q-8 12 -8 25.5t12 30.5t32 33q39 31 99 57q-237 21 -382 162q-160 154 -160 418z" />
<glyph unicode="&#xc8;" horiz-adv-x="1377" d="M140 0zM140 374q0 273 236 448q219 162 514 172q-165 105 -165 247q0 139 237 233q217 85 456 85q175 0 234 -102q19 -34 19 -73t-10.5 -73.5t-28.5 -62.5q-42 -63 -98 -63q-35 0 -83 40q-12 10 -18 17q44 52 44 124q0 83 -112 83q-128 0 -272 -45q-176 -56 -176 -141 q0 -134 247 -229q86 -33 200 -57q-38 -145 -50 -159.5t-17 -12.5q-143 49 -287 49q-229 0 -368 -114q-114 -92 -114 -225q0 -95 86 -155q88 -61 232 -61q192 0 378 136q49 -45 49 -63q0 -82 -88 -176q-141 -152 -353 -205q-72 -18 -172.5 -18t-202.5 29t-173 82 q-144 109 -144 290zM1213 1746q0 14 4.5 29.5t11.5 30.5q16 36 34 46q85 -50 297 -118q88 -27 125 -29q-6 -71 -47 -71q-107 0 -204.5 21.5t-135 34.5t-61.5 27.5t-24 28.5z" />
<glyph unicode="&#xc9;" horiz-adv-x="1377" d="M140 0zM140 374q0 273 236 448q219 162 514 172q-165 105 -165 247q0 139 237 233q217 85 456 85q175 0 234 -102q19 -34 19 -73t-10.5 -73.5t-28.5 -62.5q-42 -63 -98 -63q-35 0 -83 40q-12 10 -18 17q44 52 44 124q0 83 -112 83q-128 0 -272 -45q-176 -56 -176 -141 q0 -134 247 -229q86 -33 200 -57q-38 -145 -50 -159.5t-17 -12.5q-143 49 -287 49q-229 0 -368 -114q-114 -92 -114 -225q0 -95 86 -155q88 -61 232 -61q192 0 378 136q49 -45 49 -63q0 -82 -88 -176q-141 -152 -353 -205q-72 -18 -172.5 -18t-202.5 29t-173 82 q-144 109 -144 290zM1228 1705q74 4 306 87q91 33 136 60q28 -15 45 -76q5 -16 5 -30t-25.5 -28.5t-65.5 -27.5t-90 -23.5t-100 -17.5q-106 -15 -164 -15q-41 0 -47 71z" />
<glyph unicode="&#xca;" horiz-adv-x="1377" d="M140 0zM140 374q0 273 236 448q219 162 514 172q-165 105 -165 247q0 139 237 233q217 85 456 85q175 0 234 -102q19 -34 19 -73t-10.5 -73.5t-28.5 -62.5q-42 -63 -98 -63q-35 0 -83 40q-12 10 -18 17q44 52 44 124q0 83 -112 83q-128 0 -272 -45q-176 -56 -176 -141 q0 -134 247 -229q86 -33 200 -57q-38 -145 -50 -159.5t-17 -12.5q-143 49 -287 49q-229 0 -368 -114q-114 -92 -114 -225q0 -95 86 -155q88 -61 232 -61q192 0 378 136q49 -45 49 -63q0 -82 -88 -176q-141 -152 -353 -205q-72 -18 -172.5 -18t-202.5 29t-173 82 q-144 109 -144 290zM1014 1656q38 19 95 43t117 51q151 66 204 101q61 -9 73 -18q48 -55 137.5 -114t113.5 -73q-8 -17 -28.5 -32.5t-39 -15.5t-54.5 11.5t-78 28.5q-102 41 -150 72q-105 -60 -280 -98q-43 -10 -56.5 -10t-20.5 5.5t-14 13.5q-11 15 -19 35z" />
<glyph unicode="&#xcb;" horiz-adv-x="1377" d="M140 0zM140 374q0 273 236 448q219 162 514 172q-165 105 -165 247q0 139 237 233q217 85 456 85q175 0 234 -102q19 -34 19 -73t-10.5 -73.5t-28.5 -62.5q-42 -63 -98 -63q-35 0 -83 40q-12 10 -18 17q44 52 44 124q0 83 -112 83q-128 0 -272 -45q-176 -56 -176 -141 q0 -134 247 -229q86 -33 200 -57q-38 -145 -50 -159.5t-17 -12.5q-143 49 -287 49q-229 0 -368 -114q-114 -92 -114 -225q0 -95 86 -155q88 -61 232 -61q192 0 378 136q49 -45 49 -63q0 -82 -88 -176q-141 -152 -353 -205q-72 -18 -172.5 -18t-202.5 29t-173 82 q-144 109 -144 290zM1141 1704.5q0 22.5 19 43.5t44 38q54 36 75.5 36t41.5 -7.5t38 -18.5q44 -29 44 -50.5t-17.5 -40t-42.5 -34.5t-53 -26.5t-45.5 -10.5t-34.5 6.5t-32 17.5q-37 24 -37 46.5zM1564 1718.5q0 25.5 20 42t47 29.5q63 32 88.5 32t44 -8t33.5 -20 q34 -29 34 -56t-37.5 -54t-65 -38.5t-50.5 -11.5t-43 8t-36 22q-35 29 -35 54.5z" />
<glyph unicode="&#xcc;" horiz-adv-x="1222" d="M61 0zM61 307q0 138 113 285q66 86 105.5 92t70.5 -3q-26 -71 -26 -115.5t11 -80t33 -61.5q48 -57 128 -57t151.5 47.5t141.5 125t134 175.5t113 199q107 221 107 362q0 130 -124 152q-39 7 -80.5 7t-81.5 -4.5t-80.5 -14.5t-78 -25t-66 -36t-46 -49t-17.5 -67.5 t39 -117.5q-33 -37 -116 -61q-22 -6 -42.5 -6t-43.5 21t-41 51q-40 67 -40 114.5t31.5 90t84 78t120 63t139.5 46.5q149 39 292 39q296 0 296 -297q0 -253 -166 -604q-173 -366 -402 -562q-169 -144 -328 -144q-160 0 -249 104q-82 96 -82 253zM769 1746q0 14 4.5 29.5 t11.5 30.5q16 36 34 46q85 -50 297 -118q88 -27 125 -29q-6 -71 -47 -71q-107 0 -204.5 21.5t-135 34.5t-61.5 27.5t-24 28.5z" />
<glyph unicode="&#xcd;" horiz-adv-x="1222" d="M61 0zM61 307q0 138 113 285q66 86 105.5 92t70.5 -3q-26 -71 -26 -115.5t11 -80t33 -61.5q48 -57 128 -57t151.5 47.5t141.5 125t134 175.5t113 199q107 221 107 362q0 130 -124 152q-39 7 -80.5 7t-81.5 -4.5t-80.5 -14.5t-78 -25t-66 -36t-46 -49t-17.5 -67.5 t39 -117.5q-33 -37 -116 -61q-22 -6 -42.5 -6t-43.5 21t-41 51q-40 67 -40 114.5t31.5 90t84 78t120 63t139.5 46.5q149 39 292 39q296 0 296 -297q0 -253 -166 -604q-173 -366 -402 -562q-169 -144 -328 -144q-160 0 -249 104q-82 96 -82 253zM770 1705q74 4 306 87 q91 33 136 60q28 -15 45 -76q5 -16 5 -30t-25.5 -28.5t-65.5 -27.5t-90 -23.5t-100 -17.5q-106 -15 -164 -15q-41 0 -47 71z" />
<glyph unicode="&#xce;" horiz-adv-x="1222" d="M61 0zM61 307q0 138 113 285q66 86 105.5 92t70.5 -3q-26 -71 -26 -115.5t11 -80t33 -61.5q48 -57 128 -57t151.5 47.5t141.5 125t134 175.5t113 199q107 221 107 362q0 130 -124 152q-39 7 -80.5 7t-81.5 -4.5t-80.5 -14.5t-78 -25t-66 -36t-46 -49t-17.5 -67.5 t39 -117.5q-33 -37 -116 -61q-22 -6 -42.5 -6t-43.5 21t-41 51q-40 67 -40 114.5t31.5 90t84 78t120 63t139.5 46.5q149 39 292 39q296 0 296 -297q0 -253 -166 -604q-173 -366 -402 -562q-169 -144 -328 -144q-160 0 -249 104q-82 96 -82 253zM585 1656q38 19 95 43t117 51 q151 66 204 101q61 -9 73 -18q48 -55 137.5 -114t113.5 -73q-8 -17 -28.5 -32.5t-39 -15.5t-54.5 11.5t-78 28.5q-102 41 -150 72q-105 -60 -280 -98q-43 -10 -56.5 -10t-20.5 5.5t-14 13.5q-11 15 -19 35z" />
<glyph unicode="&#xcf;" horiz-adv-x="1222" d="M61 0zM61 307q0 138 113 285q66 86 105.5 92t70.5 -3q-26 -71 -26 -115.5t11 -80t33 -61.5q48 -57 128 -57t151.5 47.5t141.5 125t134 175.5t113 199q107 221 107 362q0 130 -124 152q-39 7 -80.5 7t-81.5 -4.5t-80.5 -14.5t-78 -25t-66 -36t-46 -49t-17.5 -67.5 t39 -117.5q-33 -37 -116 -61q-22 -6 -42.5 -6t-43.5 21t-41 51q-40 67 -40 114.5t31.5 90t84 78t120 63t139.5 46.5q149 39 292 39q296 0 296 -297q0 -253 -166 -604q-173 -366 -402 -562q-169 -144 -328 -144q-160 0 -249 104q-82 96 -82 253zM659 1704.5q0 22.5 19 43.5 t44 38q54 36 75.5 36t41.5 -7.5t38 -18.5q44 -29 44 -50.5t-17.5 -40t-42.5 -34.5t-53 -26.5t-45.5 -10.5t-34.5 6.5t-32 17.5q-37 24 -37 46.5zM1082 1718.5q0 25.5 20 42t47 29.5q63 32 88.5 32t44 -8t33.5 -20q34 -29 34 -56t-37.5 -54t-65 -38.5t-50.5 -11.5t-43 8 t-36 22q-35 29 -35 54.5z" />
<glyph unicode="&#xd0;" horiz-adv-x="1954" d="M55 519q0 9 4 20t15 21q19 16 58 25q99 -136 281 -204q75 96 180 246q-107 27 -107 133q0 52 27 98q89 -16 226 -22q188 265 269 357t108.5 118t43.5 28.5t33 -0.5q36 -6 58 -26q-111 -114 -302 -482q179 2 240.5 12t69 3t7.5 -24t-17.5 -37t-48 -38t-71 -34t-86.5 -30 q-87 -26 -195 -44q-128 -238 -176 -313q48 -4 128.5 -4t190.5 34t210 92.5t186 136.5t149 167q135 189 135 367q0 363 -604 363q-200 0 -370 -68q-196 -79 -196 -200q0 -113 84 -190q-91 -97 -145 -97q-60 0 -107 77q-46 76 -46 160.5t37 145t99.5 107t144 79t170.5 52.5 q171 40 352 40q829 0 829 -607q0 -236 -138 -467q-143 -238 -383 -383q-262 -159 -578 -159q-276 0 -487 132q-231 144 -277 399q-1 7 -1 16z" />
<glyph unicode="&#xd1;" horiz-adv-x="1766" d="M107 182.5q0 94.5 30.5 196.5t76.5 209t99 214.5t99 207.5q107 233 107 344q0 97 -13 130q-25 60 -72 62q3 67 72 67t117 -51q73 -76 73 -232q0 -181 -95 -400q243 307 405 438q211 169 417 169q200 0 260 -158q20 -53 20 -127t-17 -144.5t-42 -138t-55 -133.5t-55 -134 q-59 -159 -59 -287q0 -96 76 -121q23 -7 51.5 -7t64.5 15q19 -13 31 -34.5t12 -37.5t-12.5 -46t-35.5 -60.5t-55.5 -58.5t-71.5 -50q-146 -83 -316 -25q-141 47 -201 194q-30 76 -30 163t24 153t63.5 130t89.5 124.5t102.5 118t103 111.5t89.5 104q88 112 88 184 q0 104 -92 132q-27 9 -82 9t-135 -37t-158 -101.5t-151.5 -152t-138 -188t-117.5 -210.5q-152 -317 -152 -562q0 -30 3 -58q-29 -33 -101 -68q-133 -63 -167.5 -63t-58.5 13.5t-44 40.5q-47 61 -47 155.5zM874.5 1714q10.5 26 37 52t60.5 45q75 41 141 41t107.5 -12 t77.5 -27q94 -39 151.5 -39t140.5 72q45 -28 40.5 -49.5t-24 -48.5t-50.5 -50q-69 -51 -140.5 -51t-112 13.5t-76 30t-69 30.5t-74.5 14q-73 0 -168 -73q-52 26 -41.5 52z" />
<glyph unicode="&#xd2;" horiz-adv-x="1588" d="M56 0zM56 470q0 272 171 531q161 244 425 399q268 158 545 158q197 0 317 -92q131 -101 131 -280q0 -136 -105 -250q5 -13 5 -24q0 -240 -133 -469q-128 -222 -338 -359q-219 -144 -458 -144q-248 0 -401 138q-159 143 -159 392zM474 677q0 -190 84.5 -285t240.5 -95 q216 0 407 177q178 164 241 384q-107 -72 -207 -72q-41 0 -64 26q-38 40 -50 69q187 95 256 243q24 52 24 109q0 105 -59 160t-173.5 55t-200.5 -31t-161.5 -84.5t-137.5 -127t-106 -159.5q-94 -179 -94 -369zM873 1746q0 14 4.5 29.5t11.5 30.5q16 36 34 46 q85 -50 297 -118q88 -27 125 -29q-6 -71 -47 -71q-107 0 -204.5 21.5t-135 34.5t-61.5 27.5t-24 28.5z" />
<glyph unicode="&#xd3;" horiz-adv-x="1588" d="M56 0zM56 470q0 272 171 531q161 244 425 399q268 158 545 158q197 0 317 -92q131 -101 131 -280q0 -136 -105 -250q5 -13 5 -24q0 -240 -133 -469q-128 -222 -338 -359q-219 -144 -458 -144q-248 0 -401 138q-159 143 -159 392zM474 677q0 -190 84.5 -285t240.5 -95 q216 0 407 177q178 164 241 384q-107 -72 -207 -72q-41 0 -64 26q-38 40 -50 69q187 95 256 243q24 52 24 109q0 105 -59 160t-173.5 55t-200.5 -31t-161.5 -84.5t-137.5 -127t-106 -159.5q-94 -179 -94 -369zM978 1705q74 4 306 87q91 33 136 60q28 -15 45 -76q5 -16 5 -30 t-25.5 -28.5t-65.5 -27.5t-90 -23.5t-100 -17.5q-106 -15 -164 -15q-41 0 -47 71z" />
<glyph unicode="&#xd4;" horiz-adv-x="1588" d="M56 0zM56 470q0 272 171 531q161 244 425 399q268 158 545 158q197 0 317 -92q131 -101 131 -280q0 -136 -105 -250q5 -13 5 -24q0 -240 -133 -469q-128 -222 -338 -359q-219 -144 -458 -144q-248 0 -401 138q-159 143 -159 392zM474 677q0 -190 84.5 -285t240.5 -95 q216 0 407 177q178 164 241 384q-107 -72 -207 -72q-41 0 -64 26q-38 40 -50 69q187 95 256 243q24 52 24 109q0 105 -59 160t-173.5 55t-200.5 -31t-161.5 -84.5t-137.5 -127t-106 -159.5q-94 -179 -94 -369zM834 1656q38 19 95 43t117 51q151 66 204 101q61 -9 73 -18 q48 -55 137.5 -114t113.5 -73q-8 -17 -28.5 -32.5t-39 -15.5t-54.5 11.5t-78 28.5q-102 41 -150 72q-105 -60 -280 -98q-43 -10 -56.5 -10t-20.5 5.5t-14 13.5q-11 15 -19 35z" />
<glyph unicode="&#xd5;" horiz-adv-x="1588" d="M56 0zM56 470q0 272 171 531q161 244 425 399q268 158 545 158q197 0 317 -92q131 -101 131 -280q0 -136 -105 -250q5 -13 5 -24q0 -240 -133 -469q-128 -222 -338 -359q-219 -144 -458 -144q-248 0 -401 138q-159 143 -159 392zM474 677q0 -190 84.5 -285t240.5 -95 q216 0 407 177q178 164 241 384q-107 -72 -207 -72q-41 0 -64 26q-38 40 -50 69q187 95 256 243q24 52 24 109q0 105 -59 160t-173.5 55t-200.5 -31t-161.5 -84.5t-137.5 -127t-106 -159.5q-94 -179 -94 -369zM901 1705q0 21 33.5 54t67.5 52q75 41 141 41t107.5 -14 t77.5 -31.5t69.5 -31.5t71.5 -14q68 0 151 72q40 -26 40 -45.5t-21.5 -49.5t-52.5 -52q-69 -52 -140.5 -52t-112 16t-76 34.5t-69 34.5t-74.5 16q-73 0 -168 -73q-45 22 -45 43z" />
<glyph unicode="&#xd6;" horiz-adv-x="1588" d="M56 0zM56 470q0 272 171 531q161 244 425 399q268 158 545 158q197 0 317 -92q131 -101 131 -280q0 -136 -105 -250q5 -13 5 -24q0 -240 -133 -469q-128 -222 -338 -359q-219 -144 -458 -144q-248 0 -401 138q-159 143 -159 392zM474 677q0 -190 84.5 -285t240.5 -95 q216 0 407 177q178 164 241 384q-107 -72 -207 -72q-41 0 -64 26q-38 40 -50 69q187 95 256 243q24 52 24 109q0 105 -59 160t-173.5 55t-200.5 -31t-161.5 -84.5t-137.5 -127t-106 -159.5q-94 -179 -94 -369zM893 1704.5q0 22.5 19 43.5t44 38q54 36 75.5 36t41.5 -7.5 t38 -18.5q44 -29 44 -50.5t-17.5 -40t-42.5 -34.5t-53 -26.5t-45.5 -10.5t-34.5 6.5t-32 17.5q-37 24 -37 46.5zM1316 1718.5q0 25.5 20 42t47 29.5q63 32 88.5 32t44 -8t33.5 -20q34 -29 34 -56t-37.5 -54t-65 -38.5t-50.5 -11.5t-43 8t-36 22q-35 29 -35 54.5z" />
<glyph unicode="&#xd7;" horiz-adv-x="1436" d="M184 293q219 128 426 265q-102 161 -102 244q0 52 33.5 81.5t103.5 52.5q23 -91 117 -275q238 170 328 275q77 -63 77 -114q0 -38 -27.5 -67t-58 -53t-69.5 -51q-58 -41 -181 -118q105 -184 185 -259q-53 -62 -94 -62q-13 0 -26 6.5t-36 27.5t-51 52q-63 68 -122 148 q-306 -179 -388 -209q-35 -14 -65 4q-50 30 -50 52z" />
<glyph unicode="&#xd8;" horiz-adv-x="1568" d="M53 486q0 291 227 578q215 273 518 414q205 96 391 96q84 0 155 -27q38 58 76 123q77 -26 77 -45t-58 -131q173 -135 173 -409q0 -275 -117 -545q-194 -446 -622 -562q-118 -32 -229.5 -32t-187.5 17q-155 -209 -194 -209q-54 0 -138 60q-22 15 -31 27q56 48 179 200 q-219 148 -219 445zM471 655q0 -158 78 -250q359 486 729 1041q-44 18 -114 18t-158.5 -29.5t-167.5 -83t-146.5 -128t-116.5 -163.5q-104 -190 -104 -405zM704 313q40 -10 112 -10t155 36t153.5 98.5t127 146t96.5 178.5q83 196 83 392q0 139 -59 219q-306 -529 -668 -1060 z" />
<glyph unicode="&#xd9;" horiz-adv-x="1566" d="M103 0zM103 277.5q0 78.5 37.5 166t93.5 176t122 178.5t122 182q131 214 131 358.5t-106 159.5q14 58 60.5 58t81 -20t58.5 -56q50 -75 50 -197q0 -152 -120 -415t-120 -379t91 -116q154 0 394 231q241 231 416 546q125 226 175 434q13 2 25 2q75 0 75 -75 q0 -105 -97 -331q-42 -97 -90 -202t-90 -208q-97 -236 -97 -372q0 -99 38 -153.5t86 -26.5q35 -23 35 -43t-15.5 -48t-41.5 -58t-60.5 -59t-73.5 -52q-85 -52 -155.5 -52t-117.5 23q-111 55 -111 216q0 38 7 81q-61 -84 -198 -158q-161 -88 -322 -88q-200 0 -262 165 q-21 54 -21 132.5zM868 1746q0 14 4.5 29.5t11.5 30.5q16 36 34 46q85 -50 297 -118q88 -27 125 -29q-6 -71 -47 -71q-107 0 -204.5 21.5t-135 34.5t-61.5 27.5t-24 28.5z" />
<glyph unicode="&#xda;" horiz-adv-x="1566" d="M103 0zM103 277.5q0 78.5 37.5 166t93.5 176t122 178.5t122 182q131 214 131 358.5t-106 159.5q14 58 60.5 58t81 -20t58.5 -56q50 -75 50 -197q0 -152 -120 -415t-120 -379t91 -116q154 0 394 231q241 231 416 546q125 226 175 434q13 2 25 2q75 0 75 -75 q0 -105 -97 -331q-42 -97 -90 -202t-90 -208q-97 -236 -97 -372q0 -99 38 -153.5t86 -26.5q35 -23 35 -43t-15.5 -48t-41.5 -58t-60.5 -59t-73.5 -52q-85 -52 -155.5 -52t-117.5 23q-111 55 -111 216q0 38 7 81q-61 -84 -198 -158q-161 -88 -322 -88q-200 0 -262 165 q-21 54 -21 132.5zM944 1705q74 4 306 87q91 33 136 60q28 -15 45 -76q5 -16 5 -30t-25.5 -28.5t-65.5 -27.5t-90 -23.5t-100 -17.5q-106 -15 -164 -15q-41 0 -47 71z" />
<glyph unicode="&#xdb;" horiz-adv-x="1566" d="M103 0zM103 277.5q0 78.5 37.5 166t93.5 176t122 178.5t122 182q131 214 131 358.5t-106 159.5q14 58 60.5 58t81 -20t58.5 -56q50 -75 50 -197q0 -152 -120 -415t-120 -379t91 -116q154 0 394 231q241 231 416 546q125 226 175 434q13 2 25 2q75 0 75 -75 q0 -105 -97 -331q-42 -97 -90 -202t-90 -208q-97 -236 -97 -372q0 -99 38 -153.5t86 -26.5q35 -23 35 -43t-15.5 -48t-41.5 -58t-60.5 -59t-73.5 -52q-85 -52 -155.5 -52t-117.5 23q-111 55 -111 216q0 38 7 81q-61 -84 -198 -158q-161 -88 -322 -88q-200 0 -262 165 q-21 54 -21 132.5zM769 1656q38 19 95 43t117 51q151 66 204 101q61 -9 73 -18q48 -55 137.5 -114t113.5 -73q-8 -17 -28.5 -32.5t-39 -15.5t-54.5 11.5t-78 28.5q-102 41 -150 72q-105 -60 -280 -98q-43 -10 -56.5 -10t-20.5 5.5t-14 13.5q-11 15 -19 35z" />
<glyph unicode="&#xdc;" horiz-adv-x="1566" d="M103 0zM103 277.5q0 78.5 37.5 166t93.5 176t122 178.5t122 182q131 214 131 358.5t-106 159.5q14 58 60.5 58t81 -20t58.5 -56q50 -75 50 -197q0 -152 -120 -415t-120 -379t91 -116q154 0 394 231q241 231 416 546q125 226 175 434q13 2 25 2q75 0 75 -75 q0 -105 -97 -331q-42 -97 -90 -202t-90 -208q-97 -236 -97 -372q0 -99 38 -153.5t86 -26.5q35 -23 35 -43t-15.5 -48t-41.5 -58t-60.5 -59t-73.5 -52q-85 -52 -155.5 -52t-117.5 23q-111 55 -111 216q0 38 7 81q-61 -84 -198 -158q-161 -88 -322 -88q-200 0 -262 165 q-21 54 -21 132.5zM839 1704.5q0 22.5 19 43.5t44 38q54 36 75.5 36t41.5 -7.5t38 -18.5q44 -29 44 -50.5t-17.5 -40t-42.5 -34.5t-53 -26.5t-45.5 -10.5t-34.5 6.5t-32 17.5q-37 24 -37 46.5zM1262 1718.5q0 25.5 20 42t47 29.5q63 32 88.5 32t44 -8t33.5 -20 q34 -29 34 -56t-37.5 -54t-65 -38.5t-50.5 -11.5t-43 8t-36 22q-35 29 -35 54.5z" />
<glyph unicode="&#xdd;" horiz-adv-x="1580" d="M63 0zM63 358q0 23 8.5 32t20.5 17q21 14 51 22q27 -55 101 -97q79 -46 158 -46q138 0 287 143q95 221 95 488q0 212 -62 357q-76 176 -203.5 176t-209.5 -114q-54 29 -37 85q16 53 88 93q82 45 183 45t181.5 -51t141.5 -144q126 -189 159 -503q54 79 108.5 160 t110.5 158t113.5 147t116.5 128q129 125 250 170q5 2 10.5 2t13.5 -2.5t18 -10.5q23 -18 29 -41q-228 -153 -415 -542q-54 -112 -104 -226.5t-99.5 -227.5t-102 -215.5t-111.5 -190t-129 -152.5q-149 -137 -339 -137q-205 0 -330 191q-67 102 -84.5 182.5t-17.5 103.5z M1039 1705q74 4 306 87q91 33 136 60q28 -15 45 -76q5 -16 5 -30t-25.5 -28.5t-65.5 -27.5t-90 -23.5t-100 -17.5q-106 -15 -164 -15q-41 0 -47 71z" />
<glyph unicode="&#xde;" horiz-adv-x="1706" d="M91 63.5q0 41.5 25.5 119t68.5 177t100.5 215t121.5 235t131 237.5t130 224q123 210 208 337q13 20 35 20t35 -1q40 -5 59 -31q-51 -112 -110 -272q357 -3 584 -104q258 -114 258 -338q0 -183 -115 -340q-107 -148 -284 -236q-179 -89 -371 -89q-280 0 -398 95 q-8 6 -12 15q-102 -329 -110 -387q-185 0 -294 52q-62 30 -62 71.5zM671 682q157 -63 325 -63q191 0 340 95q161 102 161 250q0 158 -357 217q-130 22 -290 24q-68 -186 -179 -523z" />
<glyph unicode="&#xdf;" horiz-adv-x="1162" d="M8 -19q0 208 191 600q119 245 271 449q157 212 310 302q78 46 140 46t107.5 -20t78.5 -54q72 -74 72 -181q0 -138 -150 -239q-95 -63 -123 -94t-28 -60.5t18 -54t45 -50t59 -54t59 -62.5q63 -79 63 -161.5t-32.5 -144.5t-88.5 -107q-119 -96 -292 -96q-102 0 -176 51 q-77 53 -77 131q0 65 90 203q40 -26 87.5 -35.5t67.5 -9.5q36 0 36 45q0 23 -14.5 54.5t-31.5 68.5q-46 102 -46 164.5t28.5 109t71 84t92.5 68.5t92 62q100 71 100 133t-31 98t-85 36t-108 -51t-106 -137.5t-101.5 -200t-94 -237.5t-83.5 -251t-70.5 -241t-55 -207 t-37.5 -148h-20q-228 0 -228 191z" />
<glyph unicode="&#xe0;" horiz-adv-x="1177" d="M38 0zM38 270q0 153 120 297q116 140 304 228q195 91 403 91q79 0 113 -25q27 32 48.5 37.5t33.5 5.5q38 0 81 -11q-4 -13 -17 -44.5t-29 -74.5t-34 -94q-65 -182 -65 -272.5t57 -90.5q74 0 165 67q81 61 142 152q45 3 45 -37q0 -34 -41.5 -104t-80.5 -121t-87 -100 t-102 -88q-121 -86 -236 -86q-146 0 -196 88q-16 27 -16 47.5v24.5q-137 -160 -334 -160q-125 0 -200 75q-74 74 -74 195zM360 433q0 -116 97 -116q107 0 252 173q77 92 134.5 176t87.5 128q-250 -2 -415 -114q-156 -106 -156 -247zM579 1342q0 37 58 80q54 40 91 40 q39 -117 141 -268q48 -72 77 -92q-11 -30 -35 -45.5t-40.5 -15.5t-49 14t-66 37.5t-65.5 54t-57 63.5q-54 75 -54 132z" />
<glyph unicode="&#xe1;" horiz-adv-x="1177" d="M38 0zM38 270q0 153 120 297q116 140 304 228q195 91 403 91q79 0 113 -25q27 32 48.5 37.5t33.5 5.5q38 0 81 -11q-4 -13 -17 -44.5t-29 -74.5t-34 -94q-65 -182 -65 -272.5t57 -90.5q74 0 165 67q81 61 142 152q45 3 45 -37q0 -34 -41.5 -104t-80.5 -121t-87 -100 t-102 -88q-121 -86 -236 -86q-146 0 -196 88q-16 27 -16 47.5v24.5q-137 -160 -334 -160q-125 0 -200 75q-74 74 -74 195zM360 433q0 -116 97 -116q107 0 252 173q77 92 134.5 176t87.5 128q-250 -2 -415 -114q-156 -106 -156 -247zM641 1102q66 46 149.5 124t118.5 115 q80 84 94 127q59 -13 128 -82q17 -17 17 -35.5t-26 -51.5t-66.5 -68t-90 -69.5t-97 -61.5t-87.5 -43.5t-53 -16.5t-25 6.5t-25 16.5q-31 24 -37 39z" />
<glyph unicode="&#xe2;" horiz-adv-x="1177" d="M38 0zM38 270q0 153 120 297q116 140 304 228q195 91 403 91q79 0 113 -25q27 32 48.5 37.5t33.5 5.5q38 0 81 -11q-4 -13 -17 -44.5t-29 -74.5t-34 -94q-65 -182 -65 -272.5t57 -90.5q74 0 165 67q81 61 142 152q45 3 45 -37q0 -34 -41.5 -104t-80.5 -121t-87 -100 t-102 -88q-121 -86 -236 -86q-146 0 -196 88q-16 27 -16 47.5v24.5q-137 -160 -334 -160q-125 0 -200 75q-74 74 -74 195zM360 433q0 -116 97 -116q107 0 252 173q77 92 134.5 176t87.5 128q-250 -2 -415 -114q-156 -106 -156 -247zM447 1102q255 175 374 309q30 33 38 57 q61 -9 73 -18q43 -128 129 -260q45 -68 74 -88q-11 -30 -35 -45.5t-40.5 -15.5t-45.5 14.5t-58 38.5q-55 46 -104 121q-132 -106 -268 -160q-38 -15 -50.5 -15t-24.5 6.5t-25 16.5q-31 24 -37 39z" />
<glyph unicode="&#xe3;" horiz-adv-x="1177" d="M38 0zM38 270q0 153 120 297q116 140 304 228q195 91 403 91q79 0 113 -25q27 32 48.5 37.5t33.5 5.5q38 0 81 -11q-4 -13 -17 -44.5t-29 -74.5t-34 -94q-65 -182 -65 -272.5t57 -90.5q74 0 165 67q81 61 142 152q45 3 45 -37q0 -34 -41.5 -104t-80.5 -121t-87 -100 t-102 -88q-121 -86 -236 -86q-146 0 -196 88q-16 27 -16 47.5v24.5q-137 -160 -334 -160q-125 0 -200 75q-74 74 -74 195zM360 433q0 -116 97 -116q107 0 252 173q77 92 134.5 176t87.5 128q-250 -2 -415 -114q-156 -106 -156 -247zM467 1174q0 19 37.5 68t73.5 76 q81 62 150 62t110 -14.5t76.5 -32t68.5 -32t80.5 -14.5t87.5 57q81 -37 81 -59q0 -68 -76 -143q-81 -79 -170 -79q-85 0 -158.5 73.5t-122.5 73.5q-75 0 -181 -95q-57 38 -57 59z" />
<glyph unicode="&#xe4;" horiz-adv-x="1177" d="M38 0zM38 270q0 153 120 297q116 140 304 228q195 91 403 91q79 0 113 -25q27 32 48.5 37.5t33.5 5.5q38 0 81 -11q-4 -13 -17 -44.5t-29 -74.5t-34 -94q-65 -182 -65 -272.5t57 -90.5q74 0 165 67q81 61 142 152q45 3 45 -37q0 -34 -41.5 -104t-80.5 -121t-87 -100 t-102 -88q-121 -86 -236 -86q-146 0 -196 88q-16 27 -16 47.5v24.5q-137 -160 -334 -160q-125 0 -200 75q-74 74 -74 195zM360 433q0 -116 97 -116q107 0 252 173q77 92 134.5 176t87.5 128q-250 -2 -415 -114q-156 -106 -156 -247zM525 1158.5q0 30.5 17.5 63.5t40.5 62 q57 70 77.5 70t43 -11.5t43.5 -28.5q50 -40 50 -68t-14 -57.5t-37 -55t-51.5 -42.5t-52.5 -17t-44 7t-37 19q-36 28 -36 58.5zM901 1182.5q0 32.5 19.5 61t46.5 52.5q62 58 87.5 58t46.5 -12.5t38 -30.5q39 -41 39 -64t-13 -50.5t-34 -54.5t-48 -47.5t-53 -20.5t-49 10.5 t-40 27.5q-40 38 -40 70.5z" />
<glyph unicode="&#xe5;" horiz-adv-x="1177" d="M38 0zM38 270q0 153 120 297q116 140 304 228q195 91 403 91q79 0 113 -25q27 32 48.5 37.5t33.5 5.5q38 0 81 -11q-4 -13 -17 -44.5t-29 -74.5t-34 -94q-65 -182 -65 -272.5t57 -90.5q74 0 165 67q81 61 142 152q45 3 45 -37q0 -34 -41.5 -104t-80.5 -121t-87 -100 t-102 -88q-121 -86 -236 -86q-146 0 -196 88q-16 27 -16 47.5v24.5q-137 -160 -334 -160q-125 0 -200 75q-74 74 -74 195zM360 433q0 -116 97 -116q107 0 252 173q77 92 134.5 176t87.5 128q-250 -2 -415 -114q-156 -106 -156 -247zM631 1121.5q0 61.5 26.5 112.5t70.5 92 q102 92 224 92q112 0 144 -87q9 -26 9 -69.5t-26.5 -97.5t-69.5 -95.5t-98 -66.5t-100.5 -25t-75.5 10t-53 30q-51 43 -51 104.5zM800 1212q0 -36 18 -51t46 -15t51 11t41 28q40 38 40 70.5t-18 49.5t-44 17q-53 0 -83 -27q-51 -47 -51 -83z" />
<glyph unicode="&#xe6;" horiz-adv-x="1577" d="M38 270q0 151 115 292q172 213 485 284q101 23 194 23t127 -25q35 47 100 42q29 -2 62 -10q-5 -14 -25 -66q183 81 335 81q125 0 171 -87q15 -28 15 -74.5t-24.5 -91.5t-66.5 -81t-97.5 -63.5t-116.5 -47.5q-114 -37 -249 -53q43 -86 175 -110q39 -7 92 -7t118 20.5 t122 55.5q118 73 190 184q45 3 45 -37q0 -16 -23.5 -72t-87.5 -143t-151 -157q-194 -156 -429 -156q-234 0 -350 119q-40 41 -62 97q-98 -114 -272 -169q-59 -18 -120 -18t-111.5 19.5t-86.5 55.5q-74 74 -74 195zM360 433q0 -116 97 -116q105 0 243 166q73 88 128 169.5 t84 124.5q-247 0 -404 -105q-148 -97 -148 -239zM1047 486q131 15 229 71q105 60 105 140.5t-71 80.5q-99 0 -178 -92q-77 -88 -85 -200z" />
<glyph unicode="&#xe7;" horiz-adv-x="851" d="M50 333q0 132 104 265q97 125 245 205q151 82 282 82q71 0 110 -24q68 -42 68 -80q0 -41 -39 -55q-76 40 -134.5 40t-106 -26.5t-83.5 -69.5q-76 -91 -76 -202q0 -84 60 -132q55 -46 162 -46t210.5 63.5t181.5 182.5q45 3 45 -37q0 -16 -22.5 -69.5t-77.5 -131.5 t-126 -140q-154 -136 -337 -165q-66 -43 -85 -65t-19 -30t19 -23t42 -38q61 -61 61 -123t-26 -98.5t-66 -59.5q-79 -47 -178 -47q-65 0 -108 27q-75 48 -91 106q-6 17 13 43q32 46 52 53q46 -33 88 -29q77 7 77 51q0 39 -45 102q-8 12 -8 23q0 43 93 107q-133 20 -209 106 t-76 235z" />
<glyph unicode="&#xe8;" horiz-adv-x="951" d="M50 0zM50 312.5q0 82.5 28.5 151.5t78.5 131.5t119 115.5t150 91q172 83 351 83q129 0 177 -81q17 -28 17 -74.5t-23.5 -91.5t-63.5 -81.5t-93 -64t-113 -47.5q-106 -36 -243 -52q58 -104 263 -104q128 0 241.5 62.5t194.5 184.5q45 3 45 -37q0 -45 -53.5 -129.5 t-100 -136.5t-104 -96.5t-123.5 -76.5q-143 -70 -301 -70q-318 0 -413 176q-34 64 -34 146.5zM421 486q128 15 220 71q97 60 97 140.5t-74 80.5q-96 0 -167 -92q-68 -88 -76 -200zM481 1342q0 37 58 80q54 40 91 40q39 -117 141 -268q48 -72 77 -92q-11 -30 -35 -45.5 t-40.5 -15.5t-49 14t-66 37.5t-65.5 54t-57 63.5q-54 75 -54 132z" />
<glyph unicode="&#xe9;" horiz-adv-x="951" d="M50 0zM50 312.5q0 82.5 28.5 151.5t78.5 131.5t119 115.5t150 91q172 83 351 83q129 0 177 -81q17 -28 17 -74.5t-23.5 -91.5t-63.5 -81.5t-93 -64t-113 -47.5q-106 -36 -243 -52q58 -104 263 -104q128 0 241.5 62.5t194.5 184.5q45 3 45 -37q0 -45 -53.5 -129.5 t-100 -136.5t-104 -96.5t-123.5 -76.5q-143 -70 -301 -70q-318 0 -413 176q-34 64 -34 146.5zM421 486q128 15 220 71q97 60 97 140.5t-74 80.5q-96 0 -167 -92q-68 -88 -76 -200zM589 1102q66 46 149.5 124t118.5 115q80 84 94 127q59 -13 128 -82q17 -17 17 -35.5 t-26 -51.5t-66.5 -68t-90 -69.5t-97 -61.5t-87.5 -43.5t-53 -16.5t-25 6.5t-25 16.5q-31 24 -37 39z" />
<glyph unicode="&#xea;" horiz-adv-x="951" d="M50 0zM50 312.5q0 82.5 28.5 151.5t78.5 131.5t119 115.5t150 91q172 83 351 83q129 0 177 -81q17 -28 17 -74.5t-23.5 -91.5t-63.5 -81.5t-93 -64t-113 -47.5q-106 -36 -243 -52q58 -104 263 -104q128 0 241.5 62.5t194.5 184.5q45 3 45 -37q0 -45 -53.5 -129.5 t-100 -136.5t-104 -96.5t-123.5 -76.5q-143 -70 -301 -70q-318 0 -413 176q-34 64 -34 146.5zM391 1102q255 175 374 309q30 33 38 57q61 -9 73 -18q43 -128 129 -260q45 -68 74 -88q-11 -30 -35 -45.5t-40.5 -15.5t-45.5 14.5t-58 38.5q-55 46 -104 121 q-132 -106 -268 -160q-38 -15 -50.5 -15t-24.5 6.5t-25 16.5q-31 24 -37 39zM421 486q128 15 220 71q97 60 97 140.5t-74 80.5q-96 0 -167 -92q-68 -88 -76 -200z" />
<glyph unicode="&#xeb;" horiz-adv-x="951" d="M50 0zM50 312.5q0 82.5 28.5 151.5t78.5 131.5t119 115.5t150 91q172 83 351 83q129 0 177 -81q17 -28 17 -74.5t-23.5 -91.5t-63.5 -81.5t-93 -64t-113 -47.5q-106 -36 -243 -52q58 -104 263 -104q128 0 241.5 62.5t194.5 184.5q45 3 45 -37q0 -45 -53.5 -129.5 t-100 -136.5t-104 -96.5t-123.5 -76.5q-143 -70 -301 -70q-318 0 -413 176q-34 64 -34 146.5zM421 486q128 15 220 71q97 60 97 140.5t-74 80.5q-96 0 -167 -92q-68 -88 -76 -200zM472 1158.5q0 30.5 17.5 63.5t40.5 62q57 70 77.5 70t43 -11.5t43.5 -28.5q50 -40 50 -68 t-14 -57.5t-37 -55t-51.5 -42.5t-52.5 -17t-44 7t-37 19q-36 28 -36 58.5zM848 1182.5q0 32.5 19.5 61t46.5 52.5q62 58 87.5 58t46.5 -12.5t38 -30.5q39 -41 39 -64t-13 -50.5t-34 -54.5t-48 -47.5t-53 -20.5t-49 10.5t-40 27.5q-40 38 -40 70.5z" />
<glyph unicode="&#xec;" horiz-adv-x="670" d="M49 0zM49 226.5q0 65.5 28.5 138t73 145t99.5 139.5t109 119q118 112 175 112q24 0 53.5 -20.5t37.5 -30.5q-151 -163 -191 -311q-13 -45 -13 -88.5t33 -78t82 -34.5t91.5 18.5t83.5 48.5q81 61 142 152q45 3 45 -37q0 -33 -41.5 -104t-82.5 -122.5t-93.5 -101.5 t-114.5 -89q-139 -88 -286 -88q-155 0 -210 122q-21 45 -21 110.5zM340 1342q0 37 58 80q54 40 91 40q39 -117 141 -268q48 -72 77 -92q-11 -30 -35 -45.5t-40.5 -15.5t-49 14t-66 37.5t-65.5 54t-57 63.5q-54 75 -54 132z" />
<glyph unicode="&#xed;" horiz-adv-x="670" d="M49 0zM49 226.5q0 65.5 28.5 138t73 145t99.5 139.5t109 119q118 112 175 112q24 0 53.5 -20.5t37.5 -30.5q-151 -163 -191 -311q-13 -45 -13 -88.5t33 -78t82 -34.5t91.5 18.5t83.5 48.5q81 61 142 152q45 3 45 -37q0 -33 -41.5 -104t-82.5 -122.5t-93.5 -101.5 t-114.5 -89q-139 -88 -286 -88q-155 0 -210 122q-21 45 -21 110.5zM438 1102q66 46 149.5 124t118.5 115q80 84 94 127q59 -13 128 -82q17 -17 17 -35.5t-26 -51.5t-66.5 -68t-90 -69.5t-97 -61.5t-87.5 -43.5t-53 -16.5t-25 6.5t-25 16.5q-31 24 -37 39z" />
<glyph unicode="&#xee;" horiz-adv-x="670" d="M49 0zM49 226.5q0 65.5 28.5 138t73 145t99.5 139.5t109 119q118 112 175 112q24 0 53.5 -20.5t37.5 -30.5q-151 -163 -191 -311q-13 -45 -13 -88.5t33 -78t82 -34.5t91.5 18.5t83.5 48.5q81 61 142 152q45 3 45 -37q0 -33 -41.5 -104t-82.5 -122.5t-93.5 -101.5 t-114.5 -89q-139 -88 -286 -88q-155 0 -210 122q-21 45 -21 110.5zM235 1102q255 175 374 309q30 33 38 57q61 -9 73 -18q43 -128 129 -260q45 -68 74 -88q-11 -30 -35 -45.5t-40.5 -15.5t-45.5 14.5t-58 38.5q-55 46 -104 121q-132 -106 -268 -160q-38 -15 -50.5 -15 t-24.5 6.5t-25 16.5q-31 24 -37 39z" />
<glyph unicode="&#xef;" horiz-adv-x="670" d="M49 0zM49 226.5q0 65.5 28.5 138t73 145t99.5 139.5t109 119q118 112 175 112q24 0 53.5 -20.5t37.5 -30.5q-151 -163 -191 -311q-13 -45 -13 -88.5t33 -78t82 -34.5t91.5 18.5t83.5 48.5q81 61 142 152q45 3 45 -37q0 -33 -41.5 -104t-82.5 -122.5t-93.5 -101.5 t-114.5 -89q-139 -88 -286 -88q-155 0 -210 122q-21 45 -21 110.5zM324 1158.5q0 30.5 17.5 63.5t40.5 62q57 70 77.5 70t43 -11.5t43.5 -28.5q50 -40 50 -68t-14 -57.5t-37 -55t-51.5 -42.5t-52.5 -17t-44 7t-37 19q-36 28 -36 58.5zM700 1182.5q0 32.5 19.5 61t46.5 52.5 q62 58 87.5 58t46.5 -12.5t38 -30.5q39 -41 39 -64t-13 -50.5t-34 -54.5t-48 -47.5t-53 -20.5t-49 10.5t-40 27.5q-40 38 -40 70.5z" />
<glyph unicode="&#xf0;" horiz-adv-x="1044" d="M38 275.5q0 64.5 31 137t85.5 141t129.5 129t164 105.5q193 99 390 99q-6 86 -31 175q-167 -59 -200.5 -59t-49 11.5t-25.5 27.5q-22 36 -17 70q61 7 253 60q-48 104 -113 173q28 31 57.5 31t44.5 -10q82 -55 156 -153q150 47 176 66q12 -17 12 -31q0 -46 -33 -68 q-21 -17 -99 -52q105 -177 105 -357q0 -212 -108 -397q-99 -169 -260 -272q-157 -100 -315 -100q-266 0 -333 160q-20 49 -20 113.5zM360 436.5q0 -117.5 98 -117.5q143 0 262 159q114 152 120 325q-202 -23 -345 -139q-135 -110 -135 -227.5z" />
<glyph unicode="&#xf1;" horiz-adv-x="1182" d="M11 0zM11 242q0 65 19 129.5t51 127.5t74 122t89 109q99 106 188 149q24 11 43.5 11t32.5 -1q33 -3 49 -25q-61 -129 -100 -236q178 175 414 239q77 21 134.5 21t66.5 -21.5t9 -39.5t-5 -48.5t-26 -84.5t-43 -109q-56 -140 -56 -191q0 -88 63 -88q108 0 238 142 q38 41 69 88q45 3 45 -37q0 -32 -41 -105.5t-78.5 -127t-84.5 -104.5t-103 -92q-122 -89 -238 -89t-176 61t-60 178q0 173 180 414q55 73 48 73q-76 0 -214 -96q-137 -96 -209 -204q-46 -187 -50 -369q0 -40 -67 -40q-166 0 -236 132q-26 47 -26 112zM447 1174q0 19 37.5 68 t73.5 76q81 62 150 62t110 -14.5t76.5 -32t68.5 -32t80.5 -14.5t87.5 57q81 -37 81 -59q0 -68 -76 -143q-81 -79 -170 -79q-85 0 -158.5 73.5t-122.5 73.5q-75 0 -181 -95q-57 38 -57 59z" />
<glyph unicode="&#xf2;" horiz-adv-x="1040" d="M38 0zM38 270q0 172 137 329q133 152 323 213q-6 45 33 74q28 21 92.5 21t124.5 -12t121 -53q132 -87 132 -234q0 -159 -79 -302q172 37 301 230q45 3 45 -37q0 -16 -10 -39q-136 -323 -544 -428q-146 -38 -332 -38l-5 1l-20 -1q-158 0 -241 78q-78 73 -78 198zM360 433 q0 -116 97 -116q82 0 165 99q87 103 87 209q0 108 -104 143q-179 -50 -229 -224q-16 -53 -16 -111zM533 1342q0 37 58 80q54 40 91 40q39 -117 141 -268q48 -72 77 -92q-11 -30 -35 -45.5t-40.5 -15.5t-49 14t-66 37.5t-65.5 54t-57 63.5q-54 75 -54 132z" />
<glyph unicode="&#xf3;" horiz-adv-x="1040" d="M38 0zM38 270q0 172 137 329q133 152 323 213q-6 45 33 74q28 21 92.5 21t124.5 -12t121 -53q132 -87 132 -234q0 -159 -79 -302q172 37 301 230q45 3 45 -37q0 -16 -10 -39q-136 -323 -544 -428q-146 -38 -332 -38l-5 1l-20 -1q-158 0 -241 78q-78 73 -78 198zM360 433 q0 -116 97 -116q82 0 165 99q87 103 87 209q0 108 -104 143q-179 -50 -229 -224q-16 -53 -16 -111zM572 1102q66 46 149.5 124t118.5 115q80 84 94 127q59 -13 128 -82q17 -17 17 -35.5t-26 -51.5t-66.5 -68t-90 -69.5t-97 -61.5t-87.5 -43.5t-53 -16.5t-25 6.5t-25 16.5 q-31 24 -37 39z" />
<glyph unicode="&#xf4;" horiz-adv-x="1040" d="M38 0zM38 270q0 172 137 329q133 152 323 213q-6 45 33 74q28 21 92.5 21t124.5 -12t121 -53q132 -87 132 -234q0 -159 -79 -302q172 37 301 230q45 3 45 -37q0 -16 -10 -39q-136 -323 -544 -428q-146 -38 -332 -38l-5 1l-20 -1q-158 0 -241 78q-78 73 -78 198zM357 1102 q255 175 374 309q30 33 38 57q61 -9 73 -18q43 -128 129 -260q45 -68 74 -88q-11 -30 -35 -45.5t-40.5 -15.5t-45.5 14.5t-58 38.5q-55 46 -104 121q-132 -106 -268 -160q-38 -15 -50.5 -15t-24.5 6.5t-25 16.5q-31 24 -37 39zM360 433q0 -116 97 -116q82 0 165 99 q87 103 87 209q0 108 -104 143q-179 -50 -229 -224q-16 -53 -16 -111z" />
<glyph unicode="&#xf5;" horiz-adv-x="1040" d="M38 0zM38 270q0 172 137 329q133 152 323 213q-6 45 33 74q28 21 92.5 21t124.5 -12t121 -53q132 -87 132 -234q0 -159 -79 -302q172 37 301 230q45 3 45 -37q0 -16 -10 -39q-136 -323 -544 -428q-146 -38 -332 -38l-5 1l-20 -1q-158 0 -241 78q-78 73 -78 198zM360 433 q0 -116 97 -116q82 0 165 99q87 103 87 209q0 108 -104 143q-179 -50 -229 -224q-16 -53 -16 -111zM396 1174q0 19 37.5 68t73.5 76q81 62 150 62t110 -14.5t76.5 -32t68.5 -32t80.5 -14.5t87.5 57q81 -37 81 -59q0 -68 -76 -143q-81 -79 -170 -79q-85 0 -158.5 73.5 t-122.5 73.5q-75 0 -181 -95q-57 38 -57 59z" />
<glyph unicode="&#xf6;" horiz-adv-x="1040" d="M38 0zM38 270q0 172 137 329q133 152 323 213q-6 45 33 74q28 21 92.5 21t124.5 -12t121 -53q132 -87 132 -234q0 -159 -79 -302q172 37 301 230q45 3 45 -37q0 -16 -10 -39q-136 -323 -544 -428q-146 -38 -332 -38l-5 1l-20 -1q-158 0 -241 78q-78 73 -78 198zM360 433 q0 -116 97 -116q82 0 165 99q87 103 87 209q0 108 -104 143q-179 -50 -229 -224q-16 -53 -16 -111zM430 1158.5q0 30.5 17.5 63.5t40.5 62q57 70 77.5 70t43 -11.5t43.5 -28.5q50 -40 50 -68t-14 -57.5t-37 -55t-51.5 -42.5t-52.5 -17t-44 7t-37 19q-36 28 -36 58.5z M806 1182.5q0 32.5 19.5 61t46.5 52.5q62 58 87.5 58t46.5 -12.5t38 -30.5q39 -41 39 -64t-13 -50.5t-34 -54.5t-48 -47.5t-53 -20.5t-49 10.5t-40 27.5q-40 38 -40 70.5z" />
<glyph unicode="&#xf7;" horiz-adv-x="1436" d="M303 584q0 38 13 85q103 -28 408.5 -28t464.5 26q4 -15 4 -25.5t-1 -23.5t-8 -32q-15 -39 -45 -53q-118 -51 -475 -66q-96 -4 -180 -4q-181 0 -181 121zM458 170.5q0 25.5 20 53.5t48 50q64 52 110 52q34 0 66 -24q61 -46 61 -78.5t-17 -59.5t-44 -50q-61 -52 -117 -52 q-80 0 -116 64q-11 19 -11 44.5zM661 875.5q0 25.5 20 53.5t48 51q64 51 110 51q34 0 66 -24q61 -46 61 -78.5t-17 -59.5t-43 -49q-62 -53 -118 -53q-80 0 -116 63q-11 20 -11 45.5z" />
<glyph unicode="&#xf8;" horiz-adv-x="1040" d="M-47 -72l151 155q-66 70 -66 172.5t37 187t100 156.5q133 152 323 213q-6 45 33 74q28 20 100.5 20t129.5 -15q22 34 61 77q70 78 88 102q39 -13 63.5 -37.5t24.5 -36.5t-108 -169q111 -88 111 -219q0 -159 -79 -302q172 37 301 230q45 3 45 -37q0 -16 -10 -39 q-136 -323 -544 -428q-146 -38 -332 -38q-66 0 -97 5q-18 -26 -40.5 -59.5t-44.5 -63.5q-54 -71 -74 -71t-45 13t-51 32q-59 45 -77 78zM360 433q0 -116 97 -116q82 0 165 99q87 103 87 209q0 108 -104 143q-179 -50 -229 -224q-16 -53 -16 -111z" />
<glyph unicode="&#xf9;" horiz-adv-x="1177" d="M38 0zM38 270q0 141 96 296q80 129 204 228q114 90 184 90q38 0 86 -60q-98 -69 -169 -176q-79 -119 -79 -215q0 -116 97 -116q96 0 151 33q39 156 175 322q135 165 247 207q36 13 98 -34q15 -11 23 -19q-85 -73 -138 -198q-45 -106 -45 -191q0 -120 85 -120q74 0 165 67 q81 61 142 152q45 3 45 -37q0 -34 -41.5 -104t-80.5 -121t-87 -100t-102 -88q-121 -86 -236 -86q-174 0 -232 124q-110 -82 -232 -113q-42 -11 -93.5 -11t-102 18.5t-86.5 53.5q-74 72 -74 198zM541 1342q0 37 58 80q54 40 91 40q39 -117 141 -268q48 -72 77 -92 q-11 -30 -35 -45.5t-40.5 -15.5t-49 14t-66 37.5t-65.5 54t-57 63.5q-54 75 -54 132z" />
<glyph unicode="&#xfa;" horiz-adv-x="1177" d="M38 0zM38 270q0 141 96 296q80 129 204 228q114 90 184 90q38 0 86 -60q-98 -69 -169 -176q-79 -119 -79 -215q0 -116 97 -116q96 0 151 33q39 156 175 322q135 165 247 207q36 13 98 -34q15 -11 23 -19q-85 -73 -138 -198q-45 -106 -45 -191q0 -120 85 -120q74 0 165 67 q81 61 142 152q45 3 45 -37q0 -34 -41.5 -104t-80.5 -121t-87 -100t-102 -88q-121 -86 -236 -86q-174 0 -232 124q-110 -82 -232 -113q-42 -11 -93.5 -11t-102 18.5t-86.5 53.5q-74 72 -74 198zM710 1102q66 46 149.5 124t118.5 115q80 84 94 127q59 -13 128 -82 q17 -17 17 -35.5t-26 -51.5t-66.5 -68t-90 -69.5t-97 -61.5t-87.5 -43.5t-53 -16.5t-25 6.5t-25 16.5q-31 24 -37 39z" />
<glyph unicode="&#xfb;" horiz-adv-x="1177" d="M38 0zM38 270q0 141 96 296q80 129 204 228q114 90 184 90q38 0 86 -60q-98 -69 -169 -176q-79 -119 -79 -215q0 -116 97 -116q96 0 151 33q39 156 175 322q135 165 247 207q36 13 98 -34q15 -11 23 -19q-85 -73 -138 -198q-45 -106 -45 -191q0 -120 85 -120q74 0 165 67 q81 61 142 152q45 3 45 -37q0 -34 -41.5 -104t-80.5 -121t-87 -100t-102 -88q-121 -86 -236 -86q-174 0 -232 124q-110 -82 -232 -113q-42 -11 -93.5 -11t-102 18.5t-86.5 53.5q-74 72 -74 198zM484 1102q255 175 374 309q30 33 38 57q61 -9 73 -18q43 -128 129 -260 q45 -68 74 -88q-11 -30 -35 -45.5t-40.5 -15.5t-45.5 14.5t-58 38.5q-55 46 -104 121q-132 -106 -268 -160q-38 -15 -50.5 -15t-24.5 6.5t-25 16.5q-31 24 -37 39z" />
<glyph unicode="&#xfc;" horiz-adv-x="1177" d="M38 0zM38 270q0 141 96 296q80 129 204 228q114 90 184 90q38 0 86 -60q-98 -69 -169 -176q-79 -119 -79 -215q0 -116 97 -116q96 0 151 33q39 156 175 322q135 165 247 207q36 13 98 -34q15 -11 23 -19q-85 -73 -138 -198q-45 -106 -45 -191q0 -120 85 -120q74 0 165 67 q81 61 142 152q45 3 45 -37q0 -34 -41.5 -104t-80.5 -121t-87 -100t-102 -88q-121 -86 -236 -86q-174 0 -232 124q-110 -82 -232 -113q-42 -11 -93.5 -11t-102 18.5t-86.5 53.5q-74 72 -74 198zM536 1158.5q0 30.5 17.5 63.5t40.5 62q57 70 77.5 70t43 -11.5t43.5 -28.5 q50 -40 50 -68t-14 -57.5t-37 -55t-51.5 -42.5t-52.5 -17t-44 7t-37 19q-36 28 -36 58.5zM912 1182.5q0 32.5 19.5 61t46.5 52.5q62 58 87.5 58t46.5 -12.5t38 -30.5q39 -41 39 -64t-13 -50.5t-34 -54.5t-48 -47.5t-53 -20.5t-49 10.5t-40 27.5q-40 38 -40 70.5z" />
<glyph unicode="&#xfd;" horiz-adv-x="1059" d="M-123 -227q0 43 29 89q54 86 116 110q116 -78 198 -97q36 -8 76 -8t84.5 24t91.5 67q98 91 186 233q-176 -165 -332 -165q-102 0 -171 62q-74 66 -74 187q0 139 97 292q82 129 200 227q110 91 165 91q35 0 57 -30q-67 -51 -118 -133q-96 -156 -96 -235q0 -165 90 -165 q93 0 221 130q131 133 182 296q8 54 13 123q84 31 119 -11q13 -16 13 -52.5t-8.5 -94.5t-27.5 -131q-38 -155 -108 -324q143 39 287 186q44 45 75 92q45 3 45 -37q0 -16 -24 -73.5t-78.5 -133t-120.5 -132.5q-135 -116 -299 -148q-193 -354 -403 -466q-76 -41 -145 -41 t-128 20t-106 55q-106 81 -106 193zM0 0zM675 1102q66 46 149.5 124t118.5 115q80 84 94 127q59 -13 128 -82q17 -17 17 -35.5t-26 -51.5t-66.5 -68t-90 -69.5t-97 -61.5t-87.5 -43.5t-53 -16.5t-25 6.5t-25 16.5q-31 24 -37 39z" />
<glyph unicode="&#xfe;" horiz-adv-x="1136" d="M-178 -274.5q0 72.5 28.5 170t76.5 209t112.5 232t137 240.5t148.5 235.5t147 216.5q149 209 245 320q29 33 78 33q54 0 79 -40q-187 -284 -303 -532q130 77 260.5 77t199.5 -77t69 -217q0 -150 -96 -291q92 14 178 75.5t149 158.5q45 3 45 -37q0 -16 -10 -39 q-146 -348 -594 -438q-145 -29 -314 -29h-8q-117 0 -198 52q-136 -381 -140 -543q0 -40 -67 -40q-150 0 -204 142q-19 49 -19 121.5zM453 439q0 -59 26 -88.5t67.5 -29.5t84 14.5t83 39.5t76.5 58.5t63 72.5q59 84 59 145t-29 90.5t-72 29.5t-85 -12.5t-84 -35.5 q-94 -51 -156 -124q-33 -101 -33 -160z" />
<glyph unicode="&#xff;" horiz-adv-x="1059" d="M-123 -227q0 43 29 89q54 86 116 110q116 -78 198 -97q36 -8 76 -8t84.5 24t91.5 67q98 91 186 233q-176 -165 -332 -165q-102 0 -171 62q-74 66 -74 187q0 139 97 292q82 129 200 227q110 91 165 91q35 0 57 -30q-67 -51 -118 -133q-96 -156 -96 -235q0 -165 90 -165 q93 0 221 130q131 133 182 296q8 54 13 123q84 31 119 -11q13 -16 13 -52.5t-8.5 -94.5t-27.5 -131q-38 -155 -108 -324q143 39 287 186q44 45 75 92q45 3 45 -37q0 -16 -24 -73.5t-78.5 -133t-120.5 -132.5q-135 -116 -299 -148q-193 -354 -403 -466q-76 -41 -145 -41 t-128 20t-106 55q-106 81 -106 193zM0 0zM571 1158.5q0 30.5 17.5 63.5t40.5 62q57 70 77.5 70t43 -11.5t43.5 -28.5q50 -40 50 -68t-14 -57.5t-37 -55t-51.5 -42.5t-52.5 -17t-44 7t-37 19q-36 28 -36 58.5zM947 1182.5q0 32.5 19.5 61t46.5 52.5q62 58 87.5 58t46.5 -12.5 t38 -30.5q39 -41 39 -64t-13 -50.5t-34 -54.5t-48 -47.5t-53 -20.5t-49 10.5t-40 27.5q-40 38 -40 70.5z" />
<glyph unicode="&#x152;" horiz-adv-x="2140" d="M54 522q0 270 174 518q163 229 432 374q270 144 548 144q204 0 324 -134q39 -42 64 -95q173 153 399 209q72 17 132 17t106.5 -11.5t80.5 -33.5q73 -49 73 -136q0 -70 -29 -114q-52 -79 -108 -79q-35 0 -83 40q-12 10 -18 17q44 52 44 124q0 83 -112 83q-105 0 -268 -95 q-102 -60 -149 -126q-23 -33 -23 -73.5t31 -89t82 -90.5q106 -88 242 -126q-27 -83 -80 -114q-16 -9 -40.5 -9t-72 11.5t-97.5 33.5q-114 50 -184 122q-127 -80 -168 -249q-12 -49 -12 -94.5t21 -89.5t61 -79q91 -78 236 -78q192 0 378 136q49 -45 49 -68.5t-22.5 -64.5 t-62.5 -85.5t-94.5 -88t-119.5 -78.5q-146 -77 -285 -77q-288 0 -436 170q-221 -161 -453 -161q-247 0 -401 142q-159 148 -159 398zM472 691q0 -163 84 -257q86 -95 241 -95q80 0 169 36q-2 22 -2 78.5t21 131.5t55.5 135t80 106.5t95.5 80.5q92 64 190 91q39 128 39 196.5 t-18 112.5t-50 75q-68 66 -173 66q-336 0 -535 -210q-197 -207 -197 -547z" />
<glyph unicode="&#x153;" horiz-adv-x="1538" d="M38 270q0 176 141 334q139 156 332 212q-4 48 21 71q15 14 67.5 14t96.5 -5t96 -24q105 -39 160 -116q231 135 440 135q125 0 171 -87q15 -28 15 -74.5t-24.5 -91.5t-66.5 -81t-97.5 -63.5t-117.5 -47.5q-113 -37 -248 -53q43 -86 176 -110q38 -7 91 -7t118 20.5 t123 55.5q117 73 189 184q45 3 45 -37q0 -16 -23.5 -72t-87.5 -143t-151 -157q-194 -156 -432 -156t-352 124q-158 -101 -363 -101q-158 0 -241 78q-78 73 -78 198zM360 440q0 -123 97 -123q79 0 161 96q94 110 94 226q0 95 -76 136q-134 -27 -208 -123q-68 -89 -68 -212z M1008 486q131 15 229 71q105 60 105 140.5t-71 80.5q-99 0 -179 -92q-76 -88 -84 -200z" />
<glyph unicode="&#x178;" horiz-adv-x="1381" d="M63 0zM63 358q0 23 8.5 32t20.5 17q21 14 51 22q27 -55 101 -97q79 -46 158 -46q138 0 287 143q95 221 95 488q0 212 -62 357q-76 176 -203.5 176t-209.5 -114q-54 29 -37 85q16 53 88 93q82 45 183 45t181.5 -51t141.5 -144q126 -189 159 -503q54 79 108.5 160 t110.5 158t113.5 147t116.5 128q129 125 250 170q5 2 10.5 2t13.5 -2.5t18 -10.5q23 -18 29 -41q-228 -153 -415 -542q-54 -112 -104 -226.5t-99.5 -227.5t-102 -215.5t-111.5 -190t-129 -152.5q-149 -137 -339 -137q-205 0 -330 191q-67 102 -84.5 182.5t-17.5 103.5z M839 1722.5q0 22.5 19 43.5t44 38q54 36 75.5 36t41.5 -7.5t38 -18.5q44 -29 44 -50.5t-17.5 -40t-42.5 -34.5t-53 -26.5t-45.5 -10.5t-34.5 6.5t-32 17.5q-37 24 -37 46.5zM1262 1736.5q0 25.5 20 42t47 29.5q63 32 88.5 32t44 -8t33.5 -20q34 -29 34 -56t-37.5 -54 t-65 -38.5t-50.5 -11.5t-43 8t-36 22q-35 29 -35 54.5z" />
<glyph unicode="&#x2c6;" horiz-adv-x="1200" d="M458 1102q255 175 374 309q30 33 38 57q61 -9 73 -18q43 -128 129 -260q45 -68 74 -88q-11 -30 -35 -45.5t-40.5 -15.5t-45.5 14.5t-58 38.5q-55 46 -104 121q-132 -106 -268 -160q-38 -15 -50.5 -15t-24.5 6.5t-25 16.5q-31 24 -37 39z" />
<glyph unicode="&#x2dc;" horiz-adv-x="1200" d="M340 1174q0 19 37.5 68t73.5 76q81 62 150 62t110 -14.5t76.5 -32t68.5 -32t80.5 -14.5t87.5 57q81 -37 81 -59q0 -68 -76 -143q-81 -79 -170 -79q-85 0 -158.5 73.5t-122.5 73.5q-75 0 -181 -95q-57 38 -57 59z" />
<glyph unicode="&#x2000;" horiz-adv-x="926" />
<glyph unicode="&#x2001;" horiz-adv-x="1852" />
<glyph unicode="&#x2002;" horiz-adv-x="926" />
<glyph unicode="&#x2003;" horiz-adv-x="1852" />
<glyph unicode="&#x2004;" horiz-adv-x="617" />
<glyph unicode="&#x2005;" horiz-adv-x="463" />
<glyph unicode="&#x2006;" horiz-adv-x="308" />
<glyph unicode="&#x2007;" horiz-adv-x="308" />
<glyph unicode="&#x2008;" horiz-adv-x="231" />
<glyph unicode="&#x2009;" horiz-adv-x="370" />
<glyph unicode="&#x200a;" horiz-adv-x="102" />
<glyph unicode="&#x2010;" horiz-adv-x="1093" d="M373 553q0 59 27 105q159 -27 287 -27q222 0 291.5 11t77 4t7.5 -28t-25.5 -47.5t-68 -49.5t-97 -41.5t-112.5 -31.5q-120 -27 -205 -27q-142 0 -174 89q-8 23 -8 43z" />
<glyph unicode="&#x2011;" horiz-adv-x="1093" d="M373 553q0 59 27 105q159 -27 287 -27q222 0 291.5 11t77 4t7.5 -28t-25.5 -47.5t-68 -49.5t-97 -41.5t-112.5 -31.5q-120 -27 -205 -27q-142 0 -174 89q-8 23 -8 43z" />
<glyph unicode="&#x2012;" horiz-adv-x="1093" d="M373 553q0 59 27 105q159 -27 287 -27q222 0 291.5 11t77 4t7.5 -28t-25.5 -47.5t-68 -49.5t-97 -41.5t-112.5 -31.5q-120 -27 -205 -27q-142 0 -174 89q-8 23 -8 43z" />
<glyph unicode="&#x2013;" horiz-adv-x="1518" d="M463 548q0 38 17 87q117 -29 452.5 -29t465.5 21q7 -11 7 -27.5t-3 -30.5q-8 -39 -33.5 -50.5t-72.5 -21.5t-109.5 -19.5t-136 -17.5t-147.5 -14q-160 -13 -270 -13q-170 0 -170 115z" />
<glyph unicode="&#x2014;" horiz-adv-x="1661" d="M331 538q0 31 9 87q99 -24 332 -24t343.5 2t218 5.5t198.5 7.5q188 10 267 21q8 -12 8 -29t-3 -31q-8 -39 -38 -50q-193 -68 -904 -90q-132 -4 -233 -4t-135 13q-63 23 -63 92z" />
<glyph unicode="&#x2018;" horiz-adv-x="781" d="M475 1089q0 49 19.5 94.5t51.5 87.5t71.5 78.5t80.5 64.5q86 58 139 58q20 0 37.5 -16.5t19.5 -22.5q-88 -88 -127 -148t-43 -82q34 -34 34 -73.5t-11.5 -65.5t-32.5 -46q-44 -43 -105 -43t-97.5 32.5t-36.5 81.5z" />
<glyph unicode="&#x2019;" horiz-adv-x="781" d="M435 1014q90 90 127.5 149t42.5 81q-34 34 -34 73.5t11.5 65.5t31.5 46q45 43 106 43t97.5 -32.5t36.5 -81.5t-19.5 -94.5t-51.5 -87.5t-71.5 -78.5t-79.5 -63.5q-87 -59 -140 -59q-22 0 -38.5 16.5t-18.5 22.5z" />
<glyph unicode="&#x201a;" horiz-adv-x="781" d="M193 -153q155 163 170 230q-34 34 -34 73.5t11.5 65.5t31.5 46q45 43 106 43t97.5 -32.5t36.5 -81.5t-19.5 -94.5t-51.5 -87.5t-71.5 -78.5t-79.5 -64.5q-87 -58 -140 -58q-22 0 -38.5 16.5t-18.5 22.5z" />
<glyph unicode="&#x201c;" horiz-adv-x="1181" d="M475 1089q0 49 19.5 94.5t51.5 87.5t71.5 78.5t80.5 64.5q86 58 139 58q20 0 37.5 -16.5t19.5 -22.5q-88 -88 -127 -148t-43 -82q34 -34 34 -73.5t-11.5 -65.5t-32.5 -46q-44 -43 -105 -43t-97.5 32.5t-36.5 81.5zM875 1089q0 49 19.5 94.5t51.5 87.5t71.5 78.5 t80.5 64.5q86 58 139 58q20 0 37.5 -16.5t19.5 -22.5q-88 -88 -127 -148t-43 -82q34 -34 34 -73.5t-11.5 -65.5t-32.5 -46q-44 -43 -105 -43t-97.5 32.5t-36.5 81.5z" />
<glyph unicode="&#x201d;" horiz-adv-x="1181" d="M435 1014q90 90 127.5 149t42.5 81q-34 34 -34 73.5t11.5 65.5t31.5 46q45 43 106 43t97.5 -32.5t36.5 -81.5t-19.5 -94.5t-51.5 -87.5t-71.5 -78.5t-79.5 -63.5q-87 -59 -140 -59q-22 0 -38.5 16.5t-18.5 22.5zM835 1014q90 90 127.5 149t42.5 81q-34 34 -34 73.5 t11.5 65.5t31.5 46q45 43 106 43t97.5 -32.5t36.5 -81.5t-19.5 -94.5t-51.5 -87.5t-71.5 -78.5t-79.5 -63.5q-87 -59 -140 -59q-22 0 -38.5 16.5t-18.5 22.5z" />
<glyph unicode="&#x201e;" horiz-adv-x="1181" d="M140 -153q155 163 170 230q-34 34 -34 73.5t11.5 65.5t32.5 46q44 43 105 43t97.5 -32.5t36.5 -81.5t-19.5 -94.5t-51.5 -87.5t-71.5 -78.5t-80.5 -64.5q-86 -58 -139 -58q-22 0 -38.5 16.5t-18.5 22.5zM540 -153q155 163 170 230q-34 34 -34 73.5t11.5 65.5t32.5 46 q44 43 105 43t97.5 -32.5t36.5 -81.5t-19.5 -94.5t-51.5 -87.5t-71.5 -78.5t-80.5 -64.5q-86 -58 -139 -58q-22 0 -38.5 16.5t-18.5 22.5z" />
<glyph unicode="&#x2022;" horiz-adv-x="979" d="M341 498q0 38 25.5 82.5t69.5 79.5q98 79 219 79q87 0 146 -52q58 -52 58 -126q0 -79 -112 -154q-108 -72 -220 -72q-64 0 -123 48q-63 51 -63 115z" />
<glyph unicode="&#x2026;" horiz-adv-x="2484" d="M180 44q0 35 24 74t64 70q91 69 190 69t144.5 -41t45.5 -107q0 -75 -114 -138q-105 -58 -198 -58q-63 0 -96.5 24.5t-46.5 48t-13 58.5zM1008 44q0 35 24 74t64 70q91 69 190 69t144.5 -41t45.5 -107q0 -75 -114 -138q-105 -58 -198 -58q-63 0 -96.5 24.5t-46.5 48 t-13 58.5zM1836 44q0 35 24 74t64 70q91 69 190 69t144.5 -41t45.5 -107q0 -75 -114 -138q-105 -58 -198 -58q-63 0 -96.5 24.5t-46.5 48t-13 58.5z" />
<glyph unicode="&#x202f;" horiz-adv-x="370" />
<glyph unicode="&#x2039;" horiz-adv-x="1085" d="M406 434q0 37 31.5 81t82 90t112 90.5t122.5 78.5q134 77 196 77q60 0 95 -98q-63 -21 -142 -71.5t-109 -73.5q-70 -52 -70 -76t9.5 -43.5t24.5 -37.5q53 -64 184 -128q-8 -39 -40.5 -96.5t-47.5 -78.5q-35 -50 -52 -50q-122 0 -258 110q-83 66 -120 148q-18 41 -18 78z " />
<glyph unicode="&#x203a;" horiz-adv-x="1085" d="M315 307q87 29 166.5 73t114.5 69q80 57 80 100q0 70 -184 201q4 31 26 57q38 44 59.5 44t58.5 -18t78.5 -47.5t82.5 -68t75 -79.5q74 -93 74 -149t-26.5 -102t-69.5 -88.5t-96.5 -79.5t-107.5 -65q-115 -58 -188 -58q-29 0 -78 80q-44 70 -65 131z" />
<glyph unicode="&#x205f;" horiz-adv-x="463" />
<glyph unicode="&#x20ac;" horiz-adv-x="1327" d="M129 635q0 34 14 81q42 -13 173 -22q10 20 21 40l22 40q-148 8 -145 107q1 33 13 76q61 -18 240 -25q238 306 523 410q98 36 182 36t140.5 -17t96.5 -43q84 -55 84 -119q0 -61 -54 -99q-24 -17 -54 -26q-75 193 -221 193q-132 0 -266 -100q-120 -90 -212 -238 q283 5 414 26q4 -16 4 -34q0 -50 -54 -74q-110 -48 -442 -68q-25 -63 -32 -91q271 0 440 26q4 -17 4 -35.5t-11 -46t-43 -38.5q-146 -52 -416 -68v-3q0 -206 217 -206q134 0 262 73q38 21 68 47q41 -41 41 -93q0 -61 -98 -163q-108 -114 -258 -163q-76 -24 -154 -24 q-201 0 -300.5 103.5t-99.5 289.5q0 63 21 137q-120 16 -120 111z" />
<glyph unicode="&#x2122;" horiz-adv-x="1619" d="M290 1478v110h509v-110h-196v-461h-117v461h-196zM839 1017l45 570h53l220 -251l219 251h55l48 -570h-115l-30 360l-166 -183h-29l-158 178l-28 -355h-114z" />
<glyph unicode="&#xe000;" horiz-adv-x="925" d="M0 0v925h925v-925h-925z" />
</font>
</defs>
</svg>
